<svg xmlns="http://www.w3.org/2000/svg" viewBox="0 0 1000 1150" width="1000" height="1150">
<defs>
 <linearGradient id="oroBordo" x1="0" y1="0" x2="0.8" y2="1">
  <stop offset="0" stop-color="#f2d391"/><stop offset="0.35" stop-color="#d9a24e"/>
  <stop offset="0.65" stop-color="#a5762a"/><stop offset="1" stop-color="#e0b263"/>
 </linearGradient>
 <linearGradient id="oroV" x1="0" y1="0" x2="0" y2="1">
  <stop offset="0" stop-color="#f6e0aa"/><stop offset="0.4" stop-color="#dfa94f"/>
  <stop offset="0.75" stop-color="#b1802f"/><stop offset="1" stop-color="#d9a24e"/>
 </linearGradient>
 <linearGradient id="oroH" x1="0" y1="0" x2="1" y2="0">
  <stop offset="0" stop-color="#b1802f"/><stop offset="0.35" stop-color="#f0cd8a"/>
  <stop offset="0.65" stop-color="#c08c36"/><stop offset="1" stop-color="#a5762a"/>
 </linearGradient>
 <radialGradient id="campo" cx="0.5" cy="0.3" r="1">
  <stop offset="0" stop-color="#2b2622"/><stop offset="0.7" stop-color="#1d1916"/>
  <stop offset="1" stop-color="#141110"/>
 </radialGradient>
 <radialGradient id="carta" cx="0.5" cy="0.4" r="0.8">
  <stop offset="0" stop-color="#f4e9cd"/><stop offset="0.75" stop-color="#e6d2a8"/>
  <stop offset="1" stop-color="#d0b586"/>
 </radialGradient>
 <linearGradient id="prato" x1="0" y1="0" x2="0" y2="1">
  <stop offset="0" stop-color="#1f5230"/><stop offset="1" stop-color="#123322"/>
 </linearGradient>
 <clipPath id="clipScudo"><path d="M269,235 h462 q34,0 34,34 v300 q0,190 -265,290 q-265,-100 -265,-290 v-300 q0,-34 34,-34 z"/></clipPath>
</defs>

<g stroke="#3f5a30" stroke-width="10" fill="none" stroke-linecap="round"><path d="M255,1005 C160,860 135,690 195,505"/></g><g><g transform="rotate(32 219.0 986.0)"><ellipse cx="219.0" cy="986.0" rx="30" ry="12" fill="#48663a"/><ellipse cx="213.0" cy="983.0" rx="16" ry="4" fill="#5d7c4a" opacity="0.7"/></g><g transform="rotate(-60 291.0 986.0)"><ellipse cx="291.0" cy="986.0" rx="30" ry="12" fill="#48663a"/><ellipse cx="285.0" cy="983.0" rx="16" ry="4" fill="#5d7c4a" opacity="0.7"/></g><g transform="rotate(32 205.63059058763452 943.2727272727273)"><ellipse cx="205.63059058763452" cy="943.2727272727273" rx="30" ry="12" fill="#48663a"/><ellipse cx="199.63059058763452" cy="940.2727272727273" rx="16" ry="4" fill="#5d7c4a" opacity="0.7"/></g><g transform="rotate(-60 277.6305905876345 943.2727272727273)"><ellipse cx="277.6305905876345" cy="943.2727272727273" rx="30" ry="12" fill="#48663a"/><ellipse cx="271.6305905876345" cy="940.2727272727273" rx="16" ry="4" fill="#5d7c4a" opacity="0.7"/></g><g transform="rotate(32 192.65734894261445 900.5454545454545)"><ellipse cx="192.65734894261445" cy="900.5454545454545" rx="30" ry="12" fill="#48663a"/><ellipse cx="186.65734894261445" cy="897.5454545454545" rx="16" ry="4" fill="#5d7c4a" opacity="0.7"/></g><g transform="rotate(-60 264.6573489426145 900.5454545454545)"><ellipse cx="264.6573489426145" cy="900.5454545454545" rx="30" ry="12" fill="#48663a"/><ellipse cx="258.6573489426145" cy="897.5454545454545" rx="16" ry="4" fill="#5d7c4a" opacity="0.7"/></g><g transform="rotate(32 180.44906665110423 857.8181818181819)"><ellipse cx="180.44906665110423" cy="857.8181818181819" rx="30" ry="12" fill="#48663a"/><ellipse cx="174.44906665110423" cy="854.8181818181819" rx="16" ry="4" fill="#5d7c4a" opacity="0.7"/></g><g transform="rotate(-60 252.44906665110423 857.8181818181819)"><ellipse cx="252.44906665110423" cy="857.8181818181819" rx="30" ry="12" fill="#48663a"/><ellipse cx="246.44906665110423" cy="854.8181818181819" rx="16" ry="4" fill="#5d7c4a" opacity="0.7"/></g><g transform="rotate(32 169.32167469933034 815.0909090909091)"><ellipse cx="169.32167469933034" cy="815.0909090909091" rx="30" ry="12" fill="#48663a"/><ellipse cx="163.32167469933034" cy="812.0909090909091" rx="16" ry="4" fill="#5d7c4a" opacity="0.7"/></g><g transform="rotate(-60 241.32167469933034 815.0909090909091)"><ellipse cx="241.32167469933034" cy="815.0909090909091" rx="30" ry="12" fill="#48663a"/><ellipse cx="235.32167469933034" cy="812.0909090909091" rx="16" ry="4" fill="#5d7c4a" opacity="0.7"/></g><g transform="rotate(32 159.51641185417057 772.3636363636364)"><ellipse cx="159.51641185417057" cy="772.3636363636364" rx="30" ry="12" fill="#48663a"/><ellipse cx="153.51641185417057" cy="769.3636363636364" rx="16" ry="4" fill="#5d7c4a" opacity="0.7"/></g><g transform="rotate(-60 231.51641185417057 772.3636363636364)"><ellipse cx="231.51641185417057" cy="772.3636363636364" rx="30" ry="12" fill="#48663a"/><ellipse cx="225.51641185417057" cy="769.3636363636364" rx="16" ry="4" fill="#5d7c4a" opacity="0.7"/></g><g transform="rotate(32 151.18315446246004 729.6363636363637)"><ellipse cx="151.18315446246004" cy="729.6363636363637" rx="30" ry="12" fill="#48663a"/><ellipse cx="145.18315446246004" cy="726.6363636363637" rx="16" ry="4" fill="#5d7c4a" opacity="0.7"/></g><g transform="rotate(-60 223.18315446246004 729.6363636363637)"><ellipse cx="223.18315446246004" cy="729.6363636363637" rx="30" ry="12" fill="#48663a"/><ellipse cx="217.18315446246004" cy="726.6363636363637" rx="16" ry="4" fill="#5d7c4a" opacity="0.7"/></g><g transform="rotate(32 144.3700596214765 686.909090909091)"><ellipse cx="144.3700596214765" cy="686.909090909091" rx="30" ry="12" fill="#48663a"/><ellipse cx="138.3700596214765" cy="683.909090909091" rx="16" ry="4" fill="#5d7c4a" opacity="0.7"/></g><g transform="rotate(-60 216.3700596214765 686.909090909091)"><ellipse cx="216.3700596214765" cy="686.909090909091" rx="30" ry="12" fill="#48663a"/><ellipse cx="210.3700596214765" cy="683.909090909091" rx="16" ry="4" fill="#5d7c4a" opacity="0.7"/></g><g transform="rotate(32 139.02023740336415 644.1818181818182)"><ellipse cx="139.02023740336415" cy="644.1818181818182" rx="30" ry="12" fill="#48663a"/><ellipse cx="133.02023740336415" cy="641.1818181818182" rx="16" ry="4" fill="#5d7c4a" opacity="0.7"/></g><g transform="rotate(-60 211.02023740336415 644.1818181818182)"><ellipse cx="211.02023740336415" cy="644.1818181818182" rx="30" ry="12" fill="#48663a"/><ellipse cx="205.02023740336415" cy="641.1818181818182" rx="16" ry="4" fill="#5d7c4a" opacity="0.7"/></g><g transform="rotate(32 134.97568209109147 601.4545454545455)"><ellipse cx="134.97568209109147" cy="601.4545454545455" rx="30" ry="12" fill="#48663a"/><ellipse cx="128.97568209109147" cy="598.4545454545455" rx="16" ry="4" fill="#5d7c4a" opacity="0.7"/></g><g transform="rotate(-60 206.97568209109147 601.4545454545455)"><ellipse cx="206.97568209109147" cy="601.4545454545455" rx="30" ry="12" fill="#48663a"/><ellipse cx="200.97568209109147" cy="598.4545454545455" rx="16" ry="4" fill="#5d7c4a" opacity="0.7"/></g><g transform="rotate(32 131.98819076773003 558.7272727272727)"><ellipse cx="131.98819076773003" cy="558.7272727272727" rx="30" ry="12" fill="#48663a"/><ellipse cx="125.98819076773003" cy="555.7272727272727" rx="16" ry="4" fill="#5d7c4a" opacity="0.7"/></g><g transform="rotate(-60 203.98819076773003 558.7272727272727)"><ellipse cx="203.98819076773003" cy="558.7272727272727" rx="30" ry="12" fill="#48663a"/><ellipse cx="197.98819076773003" cy="555.7272727272727" rx="16" ry="4" fill="#5d7c4a" opacity="0.7"/></g><g transform="rotate(32 129.73651475729238 516.0)"><ellipse cx="129.73651475729238" cy="516.0" rx="30" ry="12" fill="#48663a"/><ellipse cx="123.73651475729238" cy="513.0" rx="16" ry="4" fill="#5d7c4a" opacity="0.7"/></g><g transform="rotate(-60 201.73651475729238 516.0)"><ellipse cx="201.73651475729238" cy="516.0" rx="30" ry="12" fill="#48663a"/><ellipse cx="195.73651475729238" cy="513.0" rx="16" ry="4" fill="#5d7c4a" opacity="0.7"/></g></g>

<path d="M868,1060 C800,960 788,790 812,650 C826,570 848,510 868,470
         C888,510 910,570 924,650 C948,790 936,960 868,1060 z" fill="#274a28"/>
<path d="M868,1050 C815,955 806,795 826,660 C838,585 855,528 868,492
         C874,560 876,780 872,900 C871,960 869,1010 868,1050 z" fill="#31582f"/>
<path d="M868,480 C866,600 864,850 866,1040" stroke="#1c3a1e" stroke-width="7" fill="none" stroke-linecap="round"/>
<rect x="330" y="168" width="340" height="46" rx="5" fill="url(#oroH)" stroke="#8a5c1c" stroke-width="4.5"/><rect x="336" y="173" width="328" height="9" rx="4" fill="#fff" opacity="0.3"/><path d="M350.0,168 v-74 l42.0,29.6 l42.0,-29.6 v74 z" fill="url(#oroV)" stroke="#8a5c1c" stroke-width="4.5"/><path d="M355.0,99 l34.0,28.12 v-19.240000000000002 z" fill="#fff" opacity="0.25"/><path d="M458.0,168 v-94 l42.0,37.6 l42.0,-37.6 v94 z" fill="url(#oroV)" stroke="#8a5c1c" stroke-width="4.5"/><path d="M463.0,79 l34.0,35.72 v-24.44 z" fill="#fff" opacity="0.25"/><path d="M566.0,168 v-74 l42.0,29.6 l42.0,-29.6 v74 z" fill="url(#oroV)" stroke="#8a5c1c" stroke-width="4.5"/><path d="M571.0,99 l34.0,28.12 v-19.240000000000002 z" fill="#fff" opacity="0.25"/>

<path d="M269,235 h462 q34,0 34,34 v300 q0,190 -265,290 q-265,-100 -265,-290 v-300 q0,-34 34,-34 z" fill="none" stroke="#141008" stroke-width="30" stroke-linejoin="round"/>
<path d="M269,235 h462 q34,0 34,34 v300 q0,190 -265,290 q-265,-100 -265,-290 v-300 q0,-34 34,-34 z" fill="url(#campo)" stroke="url(#oroBordo)" stroke-width="22" stroke-linejoin="round"/>

<g clip-path="url(#clipScudo)">
  <rect x="220" y="470" width="108" height="52" rx="9" fill="#a95f41"/><rect x="224" y="473" width="100" height="8" rx="4" fill="#fff" opacity="0.16"/><rect x="224" y="513" width="100" height="8" rx="4" fill="#5f2e1a" opacity="0.35"/><rect x="334" y="470" width="108" height="52" rx="9" fill="#b2694a"/><rect x="338" y="473" width="100" height="8" rx="4" fill="#fff" opacity="0.16"/><rect x="338" y="513" width="100" height="8" rx="4" fill="#5f2e1a" opacity="0.35"/><rect x="448" y="470" width="108" height="52" rx="9" fill="#a95f41"/><rect x="452" y="473" width="100" height="8" rx="4" fill="#fff" opacity="0.16"/><rect x="452" y="513" width="100" height="8" rx="4" fill="#5f2e1a" opacity="0.35"/><rect x="562" y="470" width="108" height="52" rx="9" fill="#b2694a"/><rect x="566" y="473" width="100" height="8" rx="4" fill="#fff" opacity="0.16"/><rect x="566" y="513" width="100" height="8" rx="4" fill="#5f2e1a" opacity="0.35"/><rect x="676" y="470" width="108" height="52" rx="9" fill="#a95f41"/><rect x="680" y="473" width="100" height="8" rx="4" fill="#fff" opacity="0.16"/><rect x="680" y="513" width="100" height="8" rx="4" fill="#5f2e1a" opacity="0.35"/><rect x="163" y="528" width="108" height="52" rx="9" fill="#a95f41"/><rect x="167" y="531" width="100" height="8" rx="4" fill="#fff" opacity="0.16"/><rect x="167" y="571" width="100" height="8" rx="4" fill="#5f2e1a" opacity="0.35"/><rect x="277" y="528" width="108" height="52" rx="9" fill="#b2694a"/><rect x="281" y="531" width="100" height="8" rx="4" fill="#fff" opacity="0.16"/><rect x="281" y="571" width="100" height="8" rx="4" fill="#5f2e1a" opacity="0.35"/><rect x="391" y="528" width="108" height="52" rx="9" fill="#a95f41"/><rect x="395" y="531" width="100" height="8" rx="4" fill="#fff" opacity="0.16"/><rect x="395" y="571" width="100" height="8" rx="4" fill="#5f2e1a" opacity="0.35"/><rect x="505" y="528" width="108" height="52" rx="9" fill="#b2694a"/><rect x="509" y="531" width="100" height="8" rx="4" fill="#fff" opacity="0.16"/><rect x="509" y="571" width="100" height="8" rx="4" fill="#5f2e1a" opacity="0.35"/><rect x="619" y="528" width="108" height="52" rx="9" fill="#a95f41"/><rect x="623" y="531" width="100" height="8" rx="4" fill="#fff" opacity="0.16"/><rect x="623" y="571" width="100" height="8" rx="4" fill="#5f2e1a" opacity="0.35"/><rect x="733" y="528" width="108" height="52" rx="9" fill="#b2694a"/><rect x="737" y="531" width="100" height="8" rx="4" fill="#fff" opacity="0.16"/><rect x="737" y="571" width="100" height="8" rx="4" fill="#5f2e1a" opacity="0.35"/><rect x="220" y="586" width="108" height="52" rx="9" fill="#a95f41"/><rect x="224" y="589" width="100" height="8" rx="4" fill="#fff" opacity="0.16"/><rect x="224" y="629" width="100" height="8" rx="4" fill="#5f2e1a" opacity="0.35"/><rect x="334" y="586" width="108" height="52" rx="9" fill="#b2694a"/><rect x="338" y="589" width="100" height="8" rx="4" fill="#fff" opacity="0.16"/><rect x="338" y="629" width="100" height="8" rx="4" fill="#5f2e1a" opacity="0.35"/><rect x="448" y="586" width="108" height="52" rx="9" fill="#a95f41"/><rect x="452" y="589" width="100" height="8" rx="4" fill="#fff" opacity="0.16"/><rect x="452" y="629" width="100" height="8" rx="4" fill="#5f2e1a" opacity="0.35"/><rect x="562" y="586" width="108" height="52" rx="9" fill="#b2694a"/><rect x="566" y="589" width="100" height="8" rx="4" fill="#fff" opacity="0.16"/><rect x="566" y="629" width="100" height="8" rx="4" fill="#5f2e1a" opacity="0.35"/><rect x="676" y="586" width="108" height="52" rx="9" fill="#a95f41"/><rect x="680" y="589" width="100" height="8" rx="4" fill="#fff" opacity="0.16"/><rect x="680" y="629" width="100" height="8" rx="4" fill="#5f2e1a" opacity="0.35"/><rect x="163" y="644" width="108" height="52" rx="9" fill="#a95f41"/><rect x="167" y="647" width="100" height="8" rx="4" fill="#fff" opacity="0.16"/><rect x="167" y="687" width="100" height="8" rx="4" fill="#5f2e1a" opacity="0.35"/><rect x="277" y="644" width="108" height="52" rx="9" fill="#b2694a"/><rect x="281" y="647" width="100" height="8" rx="4" fill="#fff" opacity="0.16"/><rect x="281" y="687" width="100" height="8" rx="4" fill="#5f2e1a" opacity="0.35"/><rect x="391" y="644" width="108" height="52" rx="9" fill="#a95f41"/><rect x="395" y="647" width="100" height="8" rx="4" fill="#fff" opacity="0.16"/><rect x="395" y="687" width="100" height="8" rx="4" fill="#5f2e1a" opacity="0.35"/><rect x="505" y="644" width="108" height="52" rx="9" fill="#b2694a"/><rect x="509" y="647" width="100" height="8" rx="4" fill="#fff" opacity="0.16"/><rect x="509" y="687" width="100" height="8" rx="4" fill="#5f2e1a" opacity="0.35"/><rect x="619" y="644" width="108" height="52" rx="9" fill="#a95f41"/><rect x="623" y="647" width="100" height="8" rx="4" fill="#fff" opacity="0.16"/><rect x="623" y="687" width="100" height="8" rx="4" fill="#5f2e1a" opacity="0.35"/><rect x="733" y="644" width="108" height="52" rx="9" fill="#b2694a"/><rect x="737" y="647" width="100" height="8" rx="4" fill="#fff" opacity="0.16"/><rect x="737" y="687" width="100" height="8" rx="4" fill="#5f2e1a" opacity="0.35"/>
  <path d="M238,472 v-56 l26,22 l26,-22 v56 z" fill="#a95f41" stroke="#6d3a24" stroke-width="3.5"/>
<path d="M241,418 l22,18 v-9 z" fill="#fff" opacity="0.16"/><path d="M336,472 v-56 l26,22 l26,-22 v56 z" fill="#b2694a" stroke="#6d3a24" stroke-width="3.5"/>
<path d="M339,418 l22,18 v-9 z" fill="#fff" opacity="0.16"/><path d="M434,472 v-56 l26,22 l26,-22 v56 z" fill="#a95f41" stroke="#6d3a24" stroke-width="3.5"/>
<path d="M437,418 l22,18 v-9 z" fill="#fff" opacity="0.16"/><path d="M532,472 v-56 l26,22 l26,-22 v56 z" fill="#b2694a" stroke="#6d3a24" stroke-width="3.5"/>
<path d="M535,418 l22,18 v-9 z" fill="#fff" opacity="0.16"/><path d="M630,472 v-56 l26,22 l26,-22 v56 z" fill="#a95f41" stroke="#6d3a24" stroke-width="3.5"/>
<path d="M633,418 l22,18 v-9 z" fill="#fff" opacity="0.16"/><path d="M728,472 v-56 l26,22 l26,-22 v56 z" fill="#b2694a" stroke="#6d3a24" stroke-width="3.5"/>
<path d="M731,418 l22,18 v-9 z" fill="#fff" opacity="0.16"/>
  <rect x="215" y="702" width="570" height="308" fill="url(#prato)"/>
  <rect x="215" y="702" width="570" height="8" fill="#0c2416"/>
</g>


<g>
 <rect x="352" y="555" width="296" height="146" rx="13" fill="url(#oroV)" stroke="#8a5c1c" stroke-width="6"/>
 <rect x="368" y="571" width="264" height="114" rx="7" fill="none" stroke="#9a6a20" stroke-width="4"/>
 <path d="M356,570 L644,556 L644,588 L356,606 z" fill="#fff" opacity="0.18"/>
 <text x="500" y="650" font-family="Palatino, 'Palatino Linotype', Georgia, serif" font-size="60"
       font-weight="700" fill="#fff6dd" text-anchor="middle" letter-spacing="9" dy="2" opacity="0.5">LMV</text>
 <text x="500" y="648" font-family="Palatino, 'Palatino Linotype', Georgia, serif" font-size="60"
       font-weight="700" fill="#7a4d12" text-anchor="middle" letter-spacing="9">LMV</text>
</g>

<g>
 <path d="M198,1008 L280,988 L280,1070 L198,1092 L226,1050 z" fill="#cbb489" stroke="#8a6a3a" stroke-width="3.5"/>
 <path d="M802,1008 L720,988 L720,1070 L802,1092 L774,1050 z" fill="#cbb489" stroke="#8a6a3a" stroke-width="3.5"/>
 <path d="M280,988 Q500,952 720,988 L720,1070 Q500,1036 280,1070 z" fill="url(#carta)" stroke="#8a6a3a" stroke-width="4"/>
 <text x="500" y="1044" font-family="Palatino, 'Palatino Linotype', Georgia, serif" font-size="44"
       font-weight="700" fill="#3a2a14" text-anchor="middle" letter-spacing="3">LE MURA DI VERONA</text>
</g>

<text x="500" y="1122" font-family="Palatino, 'Palatino Linotype', Georgia, serif" font-size="31"
      font-style="italic" fill="#4a3a24" text-anchor="middle" letter-spacing="3">Qui mura solo Verona &#183; MMXXVII</text>
</svg>