<svg xmlns="http://www.w3.org/2000/svg" viewBox="0 0 900 1200" width="900" height="1200">
<defs>
 <linearGradient id="oroBordo" x1="0" y1="0" x2="0.85" y2="1">
  <stop offset="0" stop-color="#f6dfa8"/><stop offset="0.3" stop-color="#dcaa54"/>
  <stop offset="0.55" stop-color="#a5762a"/><stop offset="0.78" stop-color="#e8bd6e"/>
  <stop offset="1" stop-color="#8a5c1c"/>
 </linearGradient>
 <linearGradient id="oroV" x1="0" y1="0" x2="0" y2="1">
  <stop offset="0" stop-color="#f8e5b0"/><stop offset="0.35" stop-color="#e0ac52"/>
  <stop offset="0.7" stop-color="#b1802f"/><stop offset="1" stop-color="#d9a24e"/>
 </linearGradient>
 <linearGradient id="oroH" x1="0" y1="0" x2="1" y2="0">
  <stop offset="0" stop-color="#b1802f"/><stop offset="0.3" stop-color="#f2d391"/>
  <stop offset="0.55" stop-color="#c08c36"/><stop offset="0.8" stop-color="#f0cd8a"/>
  <stop offset="1" stop-color="#a5762a"/>
 </linearGradient>
 <radialGradient id="campo" cx="0.5" cy="0.34" r="0.95">
  <stop offset="0" stop-color="#4a3520"/>
  <stop offset="0.6" stop-color="#332417"/>
  <stop offset="1" stop-color="#1c130d"/>
 </radialGradient>
 <radialGradient id="carta" cx="0.5" cy="0.4" r="0.75">
  <stop offset="0" stop-color="#f2e6c8"/><stop offset="0.7" stop-color="#e3cfa3"/>
  <stop offset="1" stop-color="#c4a878"/>
 </radialGradient>
 <linearGradient id="prato" x1="0" y1="0" x2="0" y2="1">
  <stop offset="0" stop-color="#26512d"/><stop offset="1" stop-color="#173420"/>
 </linearGradient>
 <clipPath id="clipScudo"><path d="M226,330 h448 q26,0 26,26 v290 q0,225 -276,345 q-276,-120 -276,-345 v-290 q0,-26 26,-26 z"/></clipPath>
</defs>

<g stroke="#5a7038" stroke-width="9" fill="none" stroke-linecap="round"><path d="M225,1000 C130,860 105,700 160,530"/></g><g><g transform="rotate(32 191.0 982.0)"><path d="M165.0,982.0 Q191.0,967.0 217.0,982.0 Q191.0,997.0 165.0,982.0 z" fill="#7d9c55"/><path d="M165.0,982.0 Q191.0,967.0 217.0,982.0" fill="none" stroke="#4f6b35" stroke-width="2"/><line x1="171.0" y1="982.0" x2="211.0" y2="982.0" stroke="#8fae66" stroke-width="2" opacity="0.8"/></g><g transform="rotate(-64 259.0 982.0)"><path d="M233.0,982.0 Q259.0,967.0 285.0,982.0 Q259.0,997.0 233.0,982.0 z" fill="#6f8f4a"/><path d="M233.0,982.0 Q259.0,967.0 285.0,982.0" fill="none" stroke="#4f6b35" stroke-width="2"/><line x1="239.0" y1="982.0" x2="279.0" y2="982.0" stroke="#8fae66" stroke-width="2" opacity="0.8"/></g><g transform="rotate(32 176.01475313733303 937.5)"><path d="M150.01475313733303,937.5 Q176.01475313733303,922.5 202.01475313733303,937.5 Q176.01475313733303,952.5 150.01475313733303,937.5 z" fill="#6f8f4a"/><path d="M150.01475313733303,937.5 Q176.01475313733303,922.5 202.01475313733303,937.5" fill="none" stroke="#4f6b35" stroke-width="2"/><line x1="156.01475313733303" y1="937.5" x2="196.01475313733303" y2="937.5" stroke="#8fae66" stroke-width="2" opacity="0.8"/></g><g transform="rotate(-64 244.01475313733303 937.5)"><path d="M218.01475313733303,937.5 Q244.01475313733303,922.5 270.01475313733306,937.5 Q244.01475313733303,952.5 218.01475313733303,937.5 z" fill="#7d9c55"/><path d="M218.01475313733303,937.5 Q244.01475313733303,922.5 270.01475313733306,937.5" fill="none" stroke="#4f6b35" stroke-width="2"/><line x1="224.01475313733303" y1="937.5" x2="264.01475313733306" y2="937.5" stroke="#8fae66" stroke-width="2" opacity="0.8"/></g><g transform="rotate(32 161.58915885405705 893.0)"><path d="M135.58915885405705,893.0 Q161.58915885405705,878.0 187.58915885405705,893.0 Q161.58915885405705,908.0 135.58915885405705,893.0 z" fill="#7d9c55"/><path d="M135.58915885405705,893.0 Q161.58915885405705,878.0 187.58915885405705,893.0" fill="none" stroke="#4f6b35" stroke-width="2"/><line x1="141.58915885405705" y1="893.0" x2="181.58915885405705" y2="893.0" stroke="#8fae66" stroke-width="2" opacity="0.8"/></g><g transform="rotate(-64 229.58915885405705 893.0)"><path d="M203.58915885405705,893.0 Q229.58915885405705,878.0 255.58915885405705,893.0 Q229.58915885405705,908.0 203.58915885405705,893.0 z" fill="#6f8f4a"/><path d="M203.58915885405705,893.0 Q229.58915885405705,878.0 255.58915885405705,893.0" fill="none" stroke="#4f6b35" stroke-width="2"/><line x1="209.58915885405705" y1="893.0" x2="249.58915885405705" y2="893.0" stroke="#8fae66" stroke-width="2" opacity="0.8"/></g><circle cx="195.58915885405705" cy="911.0" r="11" fill="#6b7a3a"/><circle cx="192.58915885405705" cy="908.0" r="3.5" fill="#9aa860" opacity="0.9"/><g transform="rotate(32 148.23927888075764 848.5)"><path d="M122.23927888075764,848.5 Q148.23927888075764,833.5 174.23927888075764,848.5 Q148.23927888075764,863.5 122.23927888075764,848.5 z" fill="#6f8f4a"/><path d="M122.23927888075764,848.5 Q148.23927888075764,833.5 174.23927888075764,848.5" fill="none" stroke="#4f6b35" stroke-width="2"/><line x1="128.23927888075764" y1="848.5" x2="168.23927888075764" y2="848.5" stroke="#8fae66" stroke-width="2" opacity="0.8"/></g><g transform="rotate(-64 216.23927888075764 848.5)"><path d="M190.23927888075764,848.5 Q216.23927888075764,833.5 242.23927888075764,848.5 Q216.23927888075764,863.5 190.23927888075764,848.5 z" fill="#7d9c55"/><path d="M190.23927888075764,848.5 Q216.23927888075764,833.5 242.23927888075764,848.5" fill="none" stroke="#4f6b35" stroke-width="2"/><line x1="196.23927888075764" y1="848.5" x2="236.23927888075764" y2="848.5" stroke="#8fae66" stroke-width="2" opacity="0.8"/></g><g transform="rotate(32 136.39738850341087 804.0)"><path d="M110.39738850341087,804.0 Q136.39738850341087,789.0 162.39738850341087,804.0 Q136.39738850341087,819.0 110.39738850341087,804.0 z" fill="#7d9c55"/><path d="M110.39738850341087,804.0 Q136.39738850341087,789.0 162.39738850341087,804.0" fill="none" stroke="#4f6b35" stroke-width="2"/><line x1="116.39738850341087" y1="804.0" x2="156.39738850341087" y2="804.0" stroke="#8fae66" stroke-width="2" opacity="0.8"/></g><g transform="rotate(-64 204.39738850341087 804.0)"><path d="M178.39738850341087,804.0 Q204.39738850341087,789.0 230.39738850341087,804.0 Q204.39738850341087,819.0 178.39738850341087,804.0 z" fill="#6f8f4a"/><path d="M178.39738850341087,804.0 Q204.39738850341087,789.0 230.39738850341087,804.0" fill="none" stroke="#4f6b35" stroke-width="2"/><line x1="184.39738850341087" y1="804.0" x2="224.39738850341087" y2="804.0" stroke="#8fae66" stroke-width="2" opacity="0.8"/></g><g transform="rotate(32 126.37830702030004 759.5)"><path d="M100.37830702030004,759.5 Q126.37830702030004,744.5 152.37830702030004,759.5 Q126.37830702030004,774.5 100.37830702030004,759.5 z" fill="#6f8f4a"/><path d="M100.37830702030004,759.5 Q126.37830702030004,744.5 152.37830702030004,759.5" fill="none" stroke="#4f6b35" stroke-width="2"/><line x1="106.37830702030004" y1="759.5" x2="146.37830702030004" y2="759.5" stroke="#8fae66" stroke-width="2" opacity="0.8"/></g><g transform="rotate(-64 194.37830702030004 759.5)"><path d="M168.37830702030004,759.5 Q194.37830702030004,744.5 220.37830702030004,759.5 Q194.37830702030004,774.5 168.37830702030004,759.5 z" fill="#7d9c55"/><path d="M168.37830702030004,759.5 Q194.37830702030004,744.5 220.37830702030004,759.5" fill="none" stroke="#4f6b35" stroke-width="2"/><line x1="174.37830702030004" y1="759.5" x2="214.37830702030004" y2="759.5" stroke="#8fae66" stroke-width="2" opacity="0.8"/></g><circle cx="160.37830702030004" cy="777.5" r="11" fill="#6b7a3a"/><circle cx="157.37830702030004" cy="774.5" r="3.5" fill="#9aa860" opacity="0.9"/><g transform="rotate(32 118.35487674285002 715.0)"><path d="M92.35487674285002,715.0 Q118.35487674285002,700.0 144.35487674285002,715.0 Q118.35487674285002,730.0 92.35487674285002,715.0 z" fill="#7d9c55"/><path d="M92.35487674285002,715.0 Q118.35487674285002,700.0 144.35487674285002,715.0" fill="none" stroke="#4f6b35" stroke-width="2"/><line x1="98.35487674285002" y1="715.0" x2="138.35487674285002" y2="715.0" stroke="#8fae66" stroke-width="2" opacity="0.8"/></g><g transform="rotate(-64 186.35487674285002 715.0)"><path d="M160.35487674285002,715.0 Q186.35487674285002,700.0 212.35487674285002,715.0 Q186.35487674285002,730.0 160.35487674285002,715.0 z" fill="#6f8f4a"/><path d="M160.35487674285002,715.0 Q186.35487674285002,700.0 212.35487674285002,715.0" fill="none" stroke="#4f6b35" stroke-width="2"/><line x1="166.35487674285002" y1="715.0" x2="206.35487674285002" y2="715.0" stroke="#8fae66" stroke-width="2" opacity="0.8"/></g><g transform="rotate(32 112.34450045950763 670.5)"><path d="M86.34450045950763,670.5 Q112.34450045950763,655.5 138.34450045950763,670.5 Q112.34450045950763,685.5 86.34450045950763,670.5 z" fill="#6f8f4a"/><path d="M86.34450045950763,670.5 Q112.34450045950763,655.5 138.34450045950763,670.5" fill="none" stroke="#4f6b35" stroke-width="2"/><line x1="92.34450045950763" y1="670.5" x2="132.34450045950763" y2="670.5" stroke="#8fae66" stroke-width="2" opacity="0.8"/></g><g transform="rotate(-64 180.34450045950763 670.5)"><path d="M154.34450045950763,670.5 Q180.34450045950763,655.5 206.34450045950763,670.5 Q180.34450045950763,685.5 154.34450045950763,670.5 z" fill="#7d9c55"/><path d="M154.34450045950763,670.5 Q180.34450045950763,655.5 206.34450045950763,670.5" fill="none" stroke="#4f6b35" stroke-width="2"/><line x1="160.34450045950763" y1="670.5" x2="200.34450045950763" y2="670.5" stroke="#8fae66" stroke-width="2" opacity="0.8"/></g><g transform="rotate(32 108.20778594780506 626.0)"><path d="M82.20778594780506,626.0 Q108.20778594780506,611.0 134.20778594780506,626.0 Q108.20778594780506,641.0 82.20778594780506,626.0 z" fill="#7d9c55"/><path d="M82.20778594780506,626.0 Q108.20778594780506,611.0 134.20778594780506,626.0" fill="none" stroke="#4f6b35" stroke-width="2"/><line x1="88.20778594780506" y1="626.0" x2="128.20778594780506" y2="626.0" stroke="#8fae66" stroke-width="2" opacity="0.8"/></g><g transform="rotate(-64 176.20778594780506 626.0)"><path d="M150.20778594780506,626.0 Q176.20778594780506,611.0 202.20778594780506,626.0 Q176.20778594780506,641.0 150.20778594780506,626.0 z" fill="#6f8f4a"/><path d="M150.20778594780506,626.0 Q176.20778594780506,611.0 202.20778594780506,626.0" fill="none" stroke="#4f6b35" stroke-width="2"/><line x1="156.20778594780506" y1="626.0" x2="196.20778594780506" y2="626.0" stroke="#8fae66" stroke-width="2" opacity="0.8"/></g><circle cx="142.20778594780506" cy="644.0" r="11" fill="#6b7a3a"/><circle cx="139.20778594780506" cy="641.0" r="3.5" fill="#9aa860" opacity="0.9"/><g transform="rotate(32 105.6594031123739 581.5)"><path d="M79.6594031123739,581.5 Q105.6594031123739,566.5 131.6594031123739,581.5 Q105.6594031123739,596.5 79.6594031123739,581.5 z" fill="#6f8f4a"/><path d="M79.6594031123739,581.5 Q105.6594031123739,566.5 131.6594031123739,581.5" fill="none" stroke="#4f6b35" stroke-width="2"/><line x1="85.6594031123739" y1="581.5" x2="125.6594031123739" y2="581.5" stroke="#8fae66" stroke-width="2" opacity="0.8"/></g><g transform="rotate(-64 173.6594031123739 581.5)"><path d="M147.6594031123739,581.5 Q173.6594031123739,566.5 199.6594031123739,581.5 Q173.6594031123739,596.5 147.6594031123739,581.5 z" fill="#7d9c55"/><path d="M147.6594031123739,581.5 Q173.6594031123739,566.5 199.6594031123739,581.5" fill="none" stroke="#4f6b35" stroke-width="2"/><line x1="153.6594031123739" y1="581.5" x2="193.6594031123739" y2="581.5" stroke="#8fae66" stroke-width="2" opacity="0.8"/></g><g transform="rotate(32 104.29030809594647 537.0)"><path d="M78.29030809594647,537.0 Q104.29030809594647,522.0 130.29030809594647,537.0 Q104.29030809594647,552.0 78.29030809594647,537.0 z" fill="#7d9c55"/><path d="M78.29030809594647,537.0 Q104.29030809594647,522.0 130.29030809594647,537.0" fill="none" stroke="#4f6b35" stroke-width="2"/><line x1="84.29030809594647" y1="537.0" x2="124.29030809594647" y2="537.0" stroke="#8fae66" stroke-width="2" opacity="0.8"/></g><g transform="rotate(-64 172.29030809594647 537.0)"><path d="M146.29030809594647,537.0 Q172.29030809594647,522.0 198.29030809594647,537.0 Q172.29030809594647,552.0 146.29030809594647,537.0 z" fill="#6f8f4a"/><path d="M146.29030809594647,537.0 Q172.29030809594647,522.0 198.29030809594647,537.0" fill="none" stroke="#4f6b35" stroke-width="2"/><line x1="152.29030809594647" y1="537.0" x2="192.29030809594647" y2="537.0" stroke="#8fae66" stroke-width="2" opacity="0.8"/></g></g>
<rect x="770" y="990" width="16" height="40" rx="6" fill="#4a3320"/><path d="M708,1000 L706,986 L717,972 L714,958 L715,944 L717,929 L721,915 L720,901 L716,887 L723,873 L732,859 L718,845 L726,831 L727,816 L730,802 L731,788 L736,774 L735,760 L741,746 L739,732 L744,718 L738,704 L743,689 L747,675 L749,661 L752,647 L748,633 L752,619 L755,605 L764,591 L765,576 L759,562 L761,548 L775,534 L776,520 L785,520 L794,534 L795,548 L792,562 L797,576 L797,591 L801,605 L804,619 L802,633 L808,647 L810,661 L818,675 L811,689 L812,704 L815,718 L816,732 L818,746 L820,760 L822,774 L826,788 L833,802 L830,816 L834,831 L824,845 L825,859 L835,873 L835,887 L836,901 L839,915 L839,929 L840,944 L841,958 L843,972 L849,986 L848,1000 z" fill="#2e4a2b"/><path d="M726,985 L725,972 L727,959 L728,946 L734,933 L727,920 L730,907 L738,894 L733,881 L733,869 L737,856 L742,843 L742,830 L736,817 L735,804 L738,791 L738,778 L741,765 L746,752 L743,739 L741,726 L747,713 L747,700 L751,687 L754,674 L758,661 L754,649 L756,636 L756,623 L760,610 L769,597 L759,584 L765,571 L773,558 L765,545 L785,545 L790,558 L787,571 L787,584 L790,597 L798,610 L794,623 L791,636 L795,649 L800,661 L802,674 L801,687 L803,700 L803,713 L806,726 L804,739 L808,752 L809,765 L809,778 L812,791 L813,804 L814,817 L820,830 L814,843 L823,856 L819,869 L828,881 L821,894 L826,907 L828,920 L824,933 L824,946 L826,959 L827,972 L828,985 z" fill="#3d5f36"/><path d="M732,965 L734,954 L742,942 L737,931 L738,920 L737,908 L734,897 L745,886 L747,874 L742,863 L744,852 L740,840 L741,829 L746,818 L742,806 L744,795 L744,784 L745,772 L751,761 L749,750 L754,739 L751,727 L752,716 L757,705 L750,693 L761,682 L748,671 L757,659 L750,648 L758,637 L760,625 L768,614 L763,603 L772,591 L772,580 L777,580 L785,591 L775,603 L783,614 L783,625 L785,637 L786,648 L788,659 L788,671 L789,682 L792,693 L789,705 L789,716 L787,727 L797,739 L798,750 L795,761 L798,772 L794,784 L801,795 L797,806 L795,818 L799,829 L796,840 L810,852 L797,863 L799,874 L805,886 L802,897 L809,908 L806,920 L806,931 L799,942 L810,954 L811,965 z" fill="#4a7040"/>
<rect x="310" y="252" width="280" height="42" rx="6" fill="url(#oroH)" stroke="#7a5314" stroke-width="4"/><rect x="310" y="256" width="280" height="8" fill="#fff" opacity="0.25" rx="4"/><path d="M322.0,252 v-74 l38.0,31.08 l38.0,-31.08 v74 z" fill="url(#oroV)" stroke="#7a5314" stroke-width="4"/><path d="M326.0,182 l32.0,29.6 v-20.720000000000002 z" fill="#fff" opacity="0.22"/><path d="M412.0,252 v-96 l38.0,40.32 l38.0,-40.32 v96 z" fill="url(#oroV)" stroke="#7a5314" stroke-width="4"/><path d="M416.0,160 l32.0,38.400000000000006 v-26.880000000000003 z" fill="#fff" opacity="0.22"/><path d="M502.0,252 v-74 l38.0,31.08 l38.0,-31.08 v74 z" fill="url(#oroV)" stroke="#7a5314" stroke-width="4"/><path d="M506.0,182 l32.0,29.6 v-20.720000000000002 z" fill="#fff" opacity="0.22"/>

<path d="M226,330 h448 q26,0 26,26 v290 q0,225 -276,345 q-276,-120 -276,-345 v-290 q0,-26 26,-26 z" fill="none" stroke="#171007" stroke-width="34" stroke-linejoin="round"/>
<path d="M226,330 h448 q26,0 26,26 v290 q0,225 -276,345 q-276,-120 -276,-345 v-290 q0,-26 26,-26 z" fill="url(#campo)" stroke="url(#oroBordo)" stroke-width="24" stroke-linejoin="round"/>

<g clip-path="url(#clipScudo)">
  <ellipse cx="450" cy="620" rx="330" ry="240" fill="url(#luceMuro)"/>
  <rect x="185" y="545" width="96" height="44" rx="7" fill="#a55f42"/><rect x="188" y="547" width="90" height="6" rx="3" fill="#fff" opacity="0.13"/><rect x="188" y="581" width="90" height="7" rx="3" fill="#4a2515" opacity="0.35"/><ellipse cx="195" cy="562" rx="3" ry="1" fill="#7a3d26" opacity="0.3"/><ellipse cx="240" cy="559" rx="3" ry="2" fill="#5f2e1a" opacity="0.3"/><ellipse cx="268" cy="553" rx="2" ry="1" fill="#c47a55" opacity="0.3"/><ellipse cx="246" cy="577" rx="2" ry="1" fill="#5f2e1a" opacity="0.3"/><ellipse cx="218" cy="574" rx="2" ry="1" fill="#5f2e1a" opacity="0.3"/><ellipse cx="227" cy="556" rx="2" ry="2" fill="#5f2e1a" opacity="0.3"/><ellipse cx="198" cy="571" rx="4" ry="1" fill="#7a3d26" opacity="0.3"/><ellipse cx="267" cy="561" rx="5" ry="2" fill="#c47a55" opacity="0.3"/><rect x="288" y="545" width="96" height="44" rx="7" fill="#94502f"/><rect x="291" y="547" width="90" height="6" rx="3" fill="#fff" opacity="0.13"/><rect x="291" y="581" width="90" height="7" rx="3" fill="#4a2515" opacity="0.35"/><ellipse cx="356" cy="563" rx="3" ry="2" fill="#5f2e1a" opacity="0.3"/><ellipse cx="341" cy="571" rx="5" ry="1" fill="#5f2e1a" opacity="0.3"/><ellipse cx="358" cy="564" rx="2" ry="1" fill="#5f2e1a" opacity="0.3"/><ellipse cx="368" cy="554" rx="2" ry="1" fill="#c47a55" opacity="0.3"/><ellipse cx="340" cy="569" rx="3" ry="1" fill="#c47a55" opacity="0.3"/><ellipse cx="325" cy="554" rx="5" ry="1" fill="#5f2e1a" opacity="0.3"/><ellipse cx="330" cy="564" rx="5" ry="1" fill="#c47a55" opacity="0.3"/><rect x="391" y="545" width="96" height="44" rx="7" fill="#ad5c3d"/><rect x="394" y="547" width="90" height="6" rx="3" fill="#fff" opacity="0.13"/><rect x="394" y="581" width="90" height="7" rx="3" fill="#4a2515" opacity="0.35"/><ellipse cx="456" cy="564" rx="2" ry="1" fill="#c47a55" opacity="0.3"/><ellipse cx="403" cy="572" rx="5" ry="2" fill="#7a3d26" opacity="0.3"/><ellipse cx="462" cy="571" rx="5" ry="2" fill="#c47a55" opacity="0.3"/><ellipse cx="474" cy="569" rx="4" ry="2" fill="#7a3d26" opacity="0.3"/><ellipse cx="451" cy="557" rx="5" ry="2" fill="#7a3d26" opacity="0.3"/><ellipse cx="428" cy="560" rx="4" ry="2" fill="#5f2e1a" opacity="0.3"/><ellipse cx="421" cy="562" rx="2" ry="1" fill="#c47a55" opacity="0.3"/><rect x="494" y="545" width="96" height="44" rx="7" fill="#ad5c3d"/><rect x="497" y="547" width="90" height="6" rx="3" fill="#fff" opacity="0.13"/><rect x="497" y="581" width="90" height="7" rx="3" fill="#4a2515" opacity="0.35"/><ellipse cx="565" cy="573" rx="3" ry="1" fill="#5f2e1a" opacity="0.3"/><ellipse cx="535" cy="576" rx="4" ry="1" fill="#5f2e1a" opacity="0.3"/><ellipse cx="576" cy="569" rx="5" ry="2" fill="#c47a55" opacity="0.3"/><ellipse cx="516" cy="577" rx="5" ry="2" fill="#c47a55" opacity="0.3"/><ellipse cx="509" cy="578" rx="4" ry="2" fill="#c47a55" opacity="0.3"/><ellipse cx="570" cy="568" rx="5" ry="2" fill="#c47a55" opacity="0.3"/><rect x="597" y="545" width="96" height="44" rx="7" fill="#b06344"/><rect x="600" y="547" width="90" height="6" rx="3" fill="#fff" opacity="0.13"/><rect x="600" y="581" width="90" height="7" rx="3" fill="#4a2515" opacity="0.35"/><ellipse cx="671" cy="574" rx="2" ry="2" fill="#c47a55" opacity="0.3"/><ellipse cx="644" cy="563" rx="2" ry="1" fill="#5f2e1a" opacity="0.3"/><ellipse cx="637" cy="573" rx="3" ry="1" fill="#5f2e1a" opacity="0.3"/><ellipse cx="657" cy="561" rx="5" ry="2" fill="#c47a55" opacity="0.3"/><ellipse cx="622" cy="559" rx="4" ry="1" fill="#5f2e1a" opacity="0.3"/><ellipse cx="649" cy="559" rx="5" ry="2" fill="#5f2e1a" opacity="0.3"/><ellipse cx="607" cy="560" rx="4" ry="1" fill="#7a3d26" opacity="0.3"/><ellipse cx="630" cy="569" rx="5" ry="2" fill="#7a3d26" opacity="0.3"/><rect x="700" y="545" width="96" height="44" rx="7" fill="#b06344"/><rect x="703" y="547" width="90" height="6" rx="3" fill="#fff" opacity="0.13"/><rect x="703" y="581" width="90" height="7" rx="3" fill="#4a2515" opacity="0.35"/><ellipse cx="780" cy="566" rx="3" ry="1" fill="#c47a55" opacity="0.3"/><ellipse cx="727" cy="560" rx="3" ry="1" fill="#5f2e1a" opacity="0.3"/><ellipse cx="718" cy="553" rx="2" ry="1" fill="#7a3d26" opacity="0.3"/><ellipse cx="709" cy="579" rx="2" ry="2" fill="#c47a55" opacity="0.3"/><ellipse cx="771" cy="572" rx="2" ry="2" fill="#7a3d26" opacity="0.3"/><ellipse cx="782" cy="558" rx="5" ry="1" fill="#c47a55" opacity="0.3"/><ellipse cx="749" cy="553" rx="5" ry="2" fill="#c47a55" opacity="0.3"/><rect x="135" y="596" width="96" height="44" rx="7" fill="#a0563a"/><rect x="138" y="598" width="90" height="6" rx="3" fill="#fff" opacity="0.13"/><rect x="138" y="632" width="90" height="7" rx="3" fill="#4a2515" opacity="0.35"/><ellipse cx="176" cy="630" rx="3" ry="2" fill="#5f2e1a" opacity="0.3"/><ellipse cx="217" cy="613" rx="4" ry="1" fill="#7a3d26" opacity="0.3"/><ellipse cx="199" cy="626" rx="3" ry="1" fill="#c47a55" opacity="0.3"/><ellipse cx="166" cy="618" rx="4" ry="2" fill="#c47a55" opacity="0.3"/><ellipse cx="208" cy="620" rx="2" ry="2" fill="#5f2e1a" opacity="0.3"/><ellipse cx="208" cy="616" rx="3" ry="2" fill="#7a3d26" opacity="0.3"/><ellipse cx="160" cy="606" rx="2" ry="2" fill="#5f2e1a" opacity="0.3"/><ellipse cx="143" cy="604" rx="4" ry="1" fill="#5f2e1a" opacity="0.3"/><rect x="238" y="596" width="96" height="44" rx="7" fill="#a55f42"/><rect x="241" y="598" width="90" height="6" rx="3" fill="#fff" opacity="0.13"/><rect x="241" y="632" width="90" height="7" rx="3" fill="#4a2515" opacity="0.35"/><ellipse cx="252" cy="623" rx="3" ry="1" fill="#c47a55" opacity="0.3"/><ellipse cx="268" cy="623" rx="2" ry="1" fill="#c47a55" opacity="0.3"/><ellipse cx="291" cy="619" rx="3" ry="2" fill="#7a3d26" opacity="0.3"/><ellipse cx="310" cy="622" rx="5" ry="2" fill="#5f2e1a" opacity="0.3"/><ellipse cx="249" cy="621" rx="2" ry="1" fill="#c47a55" opacity="0.3"/><ellipse cx="277" cy="606" rx="4" ry="1" fill="#5f2e1a" opacity="0.3"/><ellipse cx="288" cy="630" rx="3" ry="1" fill="#7a3d26" opacity="0.3"/><ellipse cx="293" cy="610" rx="4" ry="1" fill="#c47a55" opacity="0.3"/><ellipse cx="269" cy="612" rx="2" ry="2" fill="#5f2e1a" opacity="0.3"/><rect x="341" y="596" width="96" height="44" rx="7" fill="#94502f"/><rect x="344" y="598" width="90" height="6" rx="3" fill="#fff" opacity="0.13"/><rect x="344" y="632" width="90" height="7" rx="3" fill="#4a2515" opacity="0.35"/><ellipse cx="354" cy="614" rx="3" ry="2" fill="#5f2e1a" opacity="0.3"/><ellipse cx="410" cy="619" rx="5" ry="1" fill="#5f2e1a" opacity="0.3"/><ellipse cx="387" cy="613" rx="3" ry="2" fill="#7a3d26" opacity="0.3"/><ellipse cx="350" cy="627" rx="2" ry="1" fill="#c47a55" opacity="0.3"/><ellipse cx="402" cy="608" rx="4" ry="1" fill="#c47a55" opacity="0.3"/><rect x="444" y="596" width="96" height="44" rx="7" fill="#9c5238"/><rect x="447" y="598" width="90" height="6" rx="3" fill="#fff" opacity="0.13"/><rect x="447" y="632" width="90" height="7" rx="3" fill="#4a2515" opacity="0.35"/><ellipse cx="496" cy="623" rx="2" ry="1" fill="#7a3d26" opacity="0.3"/><ellipse cx="511" cy="622" rx="3" ry="1" fill="#c47a55" opacity="0.3"/><ellipse cx="527" cy="625" rx="5" ry="2" fill="#7a3d26" opacity="0.3"/><ellipse cx="509" cy="612" rx="4" ry="2" fill="#7a3d26" opacity="0.3"/><ellipse cx="517" cy="619" rx="2" ry="2" fill="#5f2e1a" opacity="0.3"/><ellipse cx="475" cy="613" rx="3" ry="1" fill="#7a3d26" opacity="0.3"/><ellipse cx="487" cy="604" rx="4" ry="1" fill="#7a3d26" opacity="0.3"/><ellipse cx="463" cy="622" rx="3" ry="1" fill="#7a3d26" opacity="0.3"/><rect x="547" y="596" width="96" height="44" rx="7" fill="#a85a3e"/><rect x="550" y="598" width="90" height="6" rx="3" fill="#fff" opacity="0.13"/><rect x="550" y="632" width="90" height="7" rx="3" fill="#4a2515" opacity="0.35"/><ellipse cx="593" cy="622" rx="2" ry="1" fill="#5f2e1a" opacity="0.3"/><ellipse cx="591" cy="605" rx="2" ry="2" fill="#7a3d26" opacity="0.3"/><ellipse cx="620" cy="625" rx="3" ry="1" fill="#c47a55" opacity="0.3"/><ellipse cx="616" cy="626" rx="3" ry="1" fill="#5f2e1a" opacity="0.3"/><ellipse cx="582" cy="621" rx="2" ry="1" fill="#5f2e1a" opacity="0.3"/><rect x="650" y="596" width="96" height="44" rx="7" fill="#a0563a"/><rect x="653" y="598" width="90" height="6" rx="3" fill="#fff" opacity="0.13"/><rect x="653" y="632" width="90" height="7" rx="3" fill="#4a2515" opacity="0.35"/><ellipse cx="691" cy="625" rx="5" ry="2" fill="#7a3d26" opacity="0.3"/><ellipse cx="683" cy="617" rx="4" ry="1" fill="#7a3d26" opacity="0.3"/><ellipse cx="685" cy="619" rx="2" ry="1" fill="#7a3d26" opacity="0.3"/><ellipse cx="726" cy="606" rx="3" ry="1" fill="#5f2e1a" opacity="0.3"/><ellipse cx="698" cy="619" rx="3" ry="1" fill="#c47a55" opacity="0.3"/><ellipse cx="672" cy="613" rx="5" ry="2" fill="#c47a55" opacity="0.3"/><ellipse cx="664" cy="617" rx="5" ry="2" fill="#5f2e1a" opacity="0.3"/><ellipse cx="730" cy="621" rx="2" ry="2" fill="#c47a55" opacity="0.3"/><ellipse cx="727" cy="630" rx="4" ry="2" fill="#5f2e1a" opacity="0.3"/><rect x="185" y="647" width="96" height="44" rx="7" fill="#ad5c3d"/><rect x="188" y="649" width="90" height="6" rx="3" fill="#fff" opacity="0.13"/><rect x="188" y="683" width="90" height="7" rx="3" fill="#4a2515" opacity="0.35"/><ellipse cx="241" cy="656" rx="4" ry="1" fill="#7a3d26" opacity="0.3"/><ellipse cx="259" cy="655" rx="3" ry="1" fill="#7a3d26" opacity="0.3"/><ellipse cx="227" cy="679" rx="2" ry="1" fill="#7a3d26" opacity="0.3"/><ellipse cx="215" cy="661" rx="3" ry="1" fill="#c47a55" opacity="0.3"/><ellipse cx="263" cy="667" rx="5" ry="1" fill="#5f2e1a" opacity="0.3"/><ellipse cx="206" cy="676" rx="5" ry="2" fill="#c47a55" opacity="0.3"/><ellipse cx="242" cy="662" rx="5" ry="1" fill="#5f2e1a" opacity="0.3"/><ellipse cx="222" cy="675" rx="3" ry="1" fill="#7a3d26" opacity="0.3"/><ellipse cx="242" cy="669" rx="5" ry="1" fill="#c47a55" opacity="0.3"/><rect x="288" y="647" width="96" height="44" rx="7" fill="#94502f"/><rect x="291" y="649" width="90" height="6" rx="3" fill="#fff" opacity="0.13"/><rect x="291" y="683" width="90" height="7" rx="3" fill="#4a2515" opacity="0.35"/><ellipse cx="357" cy="675" rx="3" ry="2" fill="#c47a55" opacity="0.3"/><ellipse cx="298" cy="674" rx="5" ry="1" fill="#c47a55" opacity="0.3"/><ellipse cx="332" cy="660" rx="3" ry="1" fill="#5f2e1a" opacity="0.3"/><ellipse cx="350" cy="677" rx="4" ry="1" fill="#c47a55" opacity="0.3"/><ellipse cx="306" cy="657" rx="5" ry="2" fill="#5f2e1a" opacity="0.3"/><ellipse cx="337" cy="663" rx="5" ry="1" fill="#c47a55" opacity="0.3"/><ellipse cx="342" cy="656" rx="5" ry="1" fill="#c47a55" opacity="0.3"/><ellipse cx="328" cy="659" rx="3" ry="1" fill="#5f2e1a" opacity="0.3"/><rect x="391" y="647" width="96" height="44" rx="7" fill="#ad5c3d"/><rect x="394" y="649" width="90" height="6" rx="3" fill="#fff" opacity="0.13"/><rect x="394" y="683" width="90" height="7" rx="3" fill="#4a2515" opacity="0.35"/><ellipse cx="471" cy="658" rx="3" ry="1" fill="#c47a55" opacity="0.3"/><ellipse cx="414" cy="661" rx="5" ry="1" fill="#c47a55" opacity="0.3"/><ellipse cx="475" cy="662" rx="5" ry="1" fill="#c47a55" opacity="0.3"/><ellipse cx="470" cy="671" rx="5" ry="2" fill="#7a3d26" opacity="0.3"/><ellipse cx="428" cy="674" rx="2" ry="2" fill="#c47a55" opacity="0.3"/><ellipse cx="475" cy="672" rx="5" ry="2" fill="#c47a55" opacity="0.3"/><ellipse cx="435" cy="681" rx="5" ry="2" fill="#7a3d26" opacity="0.3"/><rect x="494" y="647" width="96" height="44" rx="7" fill="#a0563a"/><rect x="497" y="649" width="90" height="6" rx="3" fill="#fff" opacity="0.13"/><rect x="497" y="683" width="90" height="7" rx="3" fill="#4a2515" opacity="0.35"/><ellipse cx="503" cy="663" rx="4" ry="2" fill="#c47a55" opacity="0.3"/><ellipse cx="567" cy="660" rx="3" ry="1" fill="#7a3d26" opacity="0.3"/><ellipse cx="523" cy="672" rx="3" ry="2" fill="#5f2e1a" opacity="0.3"/><ellipse cx="543" cy="669" rx="4" ry="2" fill="#7a3d26" opacity="0.3"/><ellipse cx="544" cy="679" rx="2" ry="2" fill="#c47a55" opacity="0.3"/><ellipse cx="533" cy="664" rx="5" ry="2" fill="#7a3d26" opacity="0.3"/><rect x="597" y="647" width="96" height="44" rx="7" fill="#a55f42"/><rect x="600" y="649" width="90" height="6" rx="3" fill="#fff" opacity="0.13"/><rect x="600" y="683" width="90" height="7" rx="3" fill="#4a2515" opacity="0.35"/><ellipse cx="650" cy="660" rx="5" ry="2" fill="#7a3d26" opacity="0.3"/><ellipse cx="645" cy="675" rx="4" ry="2" fill="#5f2e1a" opacity="0.3"/><ellipse cx="655" cy="657" rx="3" ry="1" fill="#5f2e1a" opacity="0.3"/><ellipse cx="674" cy="674" rx="2" ry="1" fill="#c47a55" opacity="0.3"/><ellipse cx="673" cy="672" rx="2" ry="2" fill="#5f2e1a" opacity="0.3"/><ellipse cx="661" cy="658" rx="2" ry="1" fill="#5f2e1a" opacity="0.3"/><rect x="700" y="647" width="96" height="44" rx="7" fill="#a85a3e"/><rect x="703" y="649" width="90" height="6" rx="3" fill="#fff" opacity="0.13"/><rect x="703" y="683" width="90" height="7" rx="3" fill="#4a2515" opacity="0.35"/><ellipse cx="769" cy="658" rx="4" ry="1" fill="#c47a55" opacity="0.3"/><ellipse cx="736" cy="661" rx="4" ry="2" fill="#c47a55" opacity="0.3"/><ellipse cx="779" cy="677" rx="2" ry="1" fill="#5f2e1a" opacity="0.3"/><ellipse cx="753" cy="674" rx="3" ry="2" fill="#5f2e1a" opacity="0.3"/><ellipse cx="753" cy="663" rx="2" ry="1" fill="#c47a55" opacity="0.3"/><ellipse cx="728" cy="672" rx="4" ry="2" fill="#7a3d26" opacity="0.3"/><ellipse cx="760" cy="681" rx="4" ry="2" fill="#7a3d26" opacity="0.3"/><rect x="135" y="698" width="96" height="44" rx="7" fill="#a55f42"/><rect x="138" y="700" width="90" height="6" rx="3" fill="#fff" opacity="0.13"/><rect x="138" y="734" width="90" height="7" rx="3" fill="#4a2515" opacity="0.35"/><ellipse cx="214" cy="706" rx="4" ry="1" fill="#c47a55" opacity="0.3"/><ellipse cx="147" cy="730" rx="3" ry="2" fill="#5f2e1a" opacity="0.3"/><ellipse cx="193" cy="719" rx="3" ry="1" fill="#5f2e1a" opacity="0.3"/><ellipse cx="153" cy="728" rx="3" ry="2" fill="#5f2e1a" opacity="0.3"/><ellipse cx="179" cy="710" rx="4" ry="2" fill="#5f2e1a" opacity="0.3"/><ellipse cx="158" cy="729" rx="3" ry="1" fill="#5f2e1a" opacity="0.3"/><rect x="238" y="698" width="96" height="44" rx="7" fill="#9c5238"/><rect x="241" y="700" width="90" height="6" rx="3" fill="#fff" opacity="0.13"/><rect x="241" y="734" width="90" height="7" rx="3" fill="#4a2515" opacity="0.35"/><ellipse cx="291" cy="724" rx="4" ry="2" fill="#7a3d26" opacity="0.3"/><ellipse cx="275" cy="730" rx="2" ry="1" fill="#7a3d26" opacity="0.3"/><ellipse cx="261" cy="706" rx="5" ry="2" fill="#7a3d26" opacity="0.3"/><ellipse cx="278" cy="709" rx="4" ry="2" fill="#7a3d26" opacity="0.3"/><ellipse cx="291" cy="707" rx="5" ry="2" fill="#c47a55" opacity="0.3"/><ellipse cx="255" cy="728" rx="2" ry="2" fill="#7a3d26" opacity="0.3"/><ellipse cx="292" cy="720" rx="4" ry="1" fill="#c47a55" opacity="0.3"/><ellipse cx="248" cy="720" rx="3" ry="2" fill="#7a3d26" opacity="0.3"/><rect x="341" y="698" width="96" height="44" rx="7" fill="#94502f"/><rect x="344" y="700" width="90" height="6" rx="3" fill="#fff" opacity="0.13"/><rect x="344" y="734" width="90" height="7" rx="3" fill="#4a2515" opacity="0.35"/><ellipse cx="395" cy="728" rx="4" ry="1" fill="#c47a55" opacity="0.3"/><ellipse cx="398" cy="709" rx="3" ry="2" fill="#5f2e1a" opacity="0.3"/><ellipse cx="415" cy="707" rx="2" ry="2" fill="#5f2e1a" opacity="0.3"/><ellipse cx="403" cy="718" rx="3" ry="1" fill="#5f2e1a" opacity="0.3"/><ellipse cx="402" cy="723" rx="2" ry="1" fill="#7a3d26" opacity="0.3"/><ellipse cx="359" cy="721" rx="2" ry="2" fill="#7a3d26" opacity="0.3"/><ellipse cx="363" cy="714" rx="3" ry="2" fill="#7a3d26" opacity="0.3"/><ellipse cx="356" cy="731" rx="5" ry="2" fill="#c47a55" opacity="0.3"/><ellipse cx="380" cy="715" rx="5" ry="1" fill="#c47a55" opacity="0.3"/><rect x="444" y="698" width="96" height="44" rx="7" fill="#9c5238"/><rect x="447" y="700" width="90" height="6" rx="3" fill="#fff" opacity="0.13"/><rect x="447" y="734" width="90" height="7" rx="3" fill="#4a2515" opacity="0.35"/><ellipse cx="456" cy="721" rx="5" ry="1" fill="#7a3d26" opacity="0.3"/><ellipse cx="489" cy="724" rx="4" ry="2" fill="#c47a55" opacity="0.3"/><ellipse cx="477" cy="729" rx="4" ry="2" fill="#7a3d26" opacity="0.3"/><ellipse cx="526" cy="717" rx="2" ry="2" fill="#5f2e1a" opacity="0.3"/><ellipse cx="496" cy="719" rx="4" ry="1" fill="#5f2e1a" opacity="0.3"/><ellipse cx="508" cy="711" rx="5" ry="2" fill="#c47a55" opacity="0.3"/><ellipse cx="470" cy="710" rx="2" ry="1" fill="#5f2e1a" opacity="0.3"/><ellipse cx="489" cy="730" rx="3" ry="1" fill="#c47a55" opacity="0.3"/><ellipse cx="520" cy="707" rx="3" ry="1" fill="#5f2e1a" opacity="0.3"/><rect x="547" y="698" width="96" height="44" rx="7" fill="#94502f"/><rect x="550" y="700" width="90" height="6" rx="3" fill="#fff" opacity="0.13"/><rect x="550" y="734" width="90" height="7" rx="3" fill="#4a2515" opacity="0.35"/><ellipse cx="612" cy="726" rx="2" ry="1" fill="#5f2e1a" opacity="0.3"/><ellipse cx="602" cy="721" rx="5" ry="2" fill="#5f2e1a" opacity="0.3"/><ellipse cx="564" cy="720" rx="3" ry="2" fill="#7a3d26" opacity="0.3"/><ellipse cx="588" cy="708" rx="2" ry="1" fill="#c47a55" opacity="0.3"/><ellipse cx="609" cy="717" rx="5" ry="1" fill="#7a3d26" opacity="0.3"/><ellipse cx="572" cy="729" rx="5" ry="2" fill="#c47a55" opacity="0.3"/><ellipse cx="574" cy="715" rx="4" ry="2" fill="#c47a55" opacity="0.3"/><ellipse cx="623" cy="715" rx="5" ry="1" fill="#c47a55" opacity="0.3"/><ellipse cx="581" cy="724" rx="5" ry="2" fill="#5f2e1a" opacity="0.3"/><rect x="650" y="698" width="96" height="44" rx="7" fill="#94502f"/><rect x="653" y="700" width="90" height="6" rx="3" fill="#fff" opacity="0.13"/><rect x="653" y="734" width="90" height="7" rx="3" fill="#4a2515" opacity="0.35"/><ellipse cx="664" cy="714" rx="3" ry="2" fill="#5f2e1a" opacity="0.3"/><ellipse cx="700" cy="722" rx="5" ry="1" fill="#c47a55" opacity="0.3"/><ellipse cx="704" cy="728" rx="3" ry="2" fill="#c47a55" opacity="0.3"/><ellipse cx="694" cy="712" rx="4" ry="1" fill="#c47a55" opacity="0.3"/><ellipse cx="724" cy="728" rx="5" ry="1" fill="#5f2e1a" opacity="0.3"/><ellipse cx="732" cy="727" rx="4" ry="1" fill="#c47a55" opacity="0.3"/><ellipse cx="700" cy="710" rx="5" ry="2" fill="#c47a55" opacity="0.3"/><ellipse cx="729" cy="707" rx="3" ry="2" fill="#5f2e1a" opacity="0.3"/><rect x="185" y="749" width="96" height="44" rx="7" fill="#9c5238"/><rect x="188" y="751" width="90" height="6" rx="3" fill="#fff" opacity="0.13"/><rect x="188" y="785" width="90" height="7" rx="3" fill="#4a2515" opacity="0.35"/><ellipse cx="260" cy="779" rx="4" ry="1" fill="#5f2e1a" opacity="0.3"/><ellipse cx="197" cy="761" rx="4" ry="1" fill="#7a3d26" opacity="0.3"/><ellipse cx="195" cy="767" rx="2" ry="1" fill="#5f2e1a" opacity="0.3"/><ellipse cx="210" cy="776" rx="3" ry="1" fill="#7a3d26" opacity="0.3"/><ellipse cx="266" cy="762" rx="2" ry="1" fill="#c47a55" opacity="0.3"/><ellipse cx="216" cy="780" rx="3" ry="2" fill="#c47a55" opacity="0.3"/><ellipse cx="231" cy="757" rx="4" ry="2" fill="#7a3d26" opacity="0.3"/><ellipse cx="226" cy="771" rx="5" ry="2" fill="#5f2e1a" opacity="0.3"/><ellipse cx="200" cy="778" rx="5" ry="1" fill="#c47a55" opacity="0.3"/><rect x="288" y="749" width="96" height="44" rx="7" fill="#94502f"/><rect x="291" y="751" width="90" height="6" rx="3" fill="#fff" opacity="0.13"/><rect x="291" y="785" width="90" height="7" rx="3" fill="#4a2515" opacity="0.35"/><ellipse cx="325" cy="771" rx="4" ry="1" fill="#5f2e1a" opacity="0.3"/><ellipse cx="348" cy="766" rx="3" ry="2" fill="#c47a55" opacity="0.3"/><ellipse cx="350" cy="773" rx="3" ry="2" fill="#7a3d26" opacity="0.3"/><ellipse cx="305" cy="781" rx="5" ry="2" fill="#c47a55" opacity="0.3"/><ellipse cx="337" cy="767" rx="4" ry="2" fill="#c47a55" opacity="0.3"/><ellipse cx="305" cy="761" rx="3" ry="1" fill="#5f2e1a" opacity="0.3"/><ellipse cx="367" cy="766" rx="3" ry="2" fill="#5f2e1a" opacity="0.3"/><ellipse cx="361" cy="780" rx="3" ry="2" fill="#7a3d26" opacity="0.3"/><rect x="391" y="749" width="96" height="44" rx="7" fill="#a55f42"/><rect x="394" y="751" width="90" height="6" rx="3" fill="#fff" opacity="0.13"/><rect x="394" y="785" width="90" height="7" rx="3" fill="#4a2515" opacity="0.35"/><ellipse cx="417" cy="781" rx="4" ry="2" fill="#5f2e1a" opacity="0.3"/><ellipse cx="437" cy="764" rx="5" ry="2" fill="#c47a55" opacity="0.3"/><ellipse cx="415" cy="766" rx="4" ry="1" fill="#5f2e1a" opacity="0.3"/><ellipse cx="450" cy="767" rx="5" ry="2" fill="#c47a55" opacity="0.3"/><ellipse cx="401" cy="761" rx="3" ry="1" fill="#5f2e1a" opacity="0.3"/><rect x="494" y="749" width="96" height="44" rx="7" fill="#a55f42"/><rect x="497" y="751" width="90" height="6" rx="3" fill="#fff" opacity="0.13"/><rect x="497" y="785" width="90" height="7" rx="3" fill="#4a2515" opacity="0.35"/><ellipse cx="502" cy="762" rx="5" ry="2" fill="#5f2e1a" opacity="0.3"/><ellipse cx="552" cy="777" rx="4" ry="1" fill="#5f2e1a" opacity="0.3"/><ellipse cx="530" cy="758" rx="2" ry="1" fill="#5f2e1a" opacity="0.3"/><ellipse cx="549" cy="762" rx="4" ry="2" fill="#7a3d26" opacity="0.3"/><ellipse cx="533" cy="769" rx="3" ry="1" fill="#5f2e1a" opacity="0.3"/><ellipse cx="539" cy="771" rx="3" ry="2" fill="#5f2e1a" opacity="0.3"/><rect x="597" y="749" width="96" height="44" rx="7" fill="#9c5238"/><rect x="600" y="751" width="90" height="6" rx="3" fill="#fff" opacity="0.13"/><rect x="600" y="785" width="90" height="7" rx="3" fill="#4a2515" opacity="0.35"/><ellipse cx="665" cy="770" rx="3" ry="2" fill="#7a3d26" opacity="0.3"/><ellipse cx="674" cy="768" rx="2" ry="2" fill="#5f2e1a" opacity="0.3"/><ellipse cx="637" cy="760" rx="2" ry="2" fill="#5f2e1a" opacity="0.3"/><ellipse cx="637" cy="766" rx="3" ry="2" fill="#7a3d26" opacity="0.3"/><ellipse cx="606" cy="765" rx="4" ry="1" fill="#7a3d26" opacity="0.3"/><ellipse cx="659" cy="758" rx="4" ry="2" fill="#5f2e1a" opacity="0.3"/><ellipse cx="645" cy="777" rx="3" ry="2" fill="#c47a55" opacity="0.3"/><ellipse cx="608" cy="770" rx="3" ry="2" fill="#c47a55" opacity="0.3"/><rect x="700" y="749" width="96" height="44" rx="7" fill="#a0563a"/><rect x="703" y="751" width="90" height="6" rx="3" fill="#fff" opacity="0.13"/><rect x="703" y="785" width="90" height="7" rx="3" fill="#4a2515" opacity="0.35"/><ellipse cx="741" cy="760" rx="2" ry="1" fill="#7a3d26" opacity="0.3"/><ellipse cx="723" cy="774" rx="5" ry="1" fill="#5f2e1a" opacity="0.3"/><ellipse cx="763" cy="770" rx="2" ry="2" fill="#5f2e1a" opacity="0.3"/><ellipse cx="737" cy="774" rx="3" ry="1" fill="#c47a55" opacity="0.3"/><ellipse cx="727" cy="761" rx="2" ry="1" fill="#7a3d26" opacity="0.3"/><ellipse cx="736" cy="771" rx="5" ry="1" fill="#c47a55" opacity="0.3"/><ellipse cx="778" cy="770" rx="5" ry="2" fill="#c47a55" opacity="0.3"/><ellipse cx="737" cy="765" rx="4" ry="1" fill="#c47a55" opacity="0.3"/><ellipse cx="735" cy="783" rx="5" ry="1" fill="#5f2e1a" opacity="0.3"/>
  <path d="M205,547 v-52 l24,20 l24,-20 v52 z" fill="#ad5c3d" stroke="#5f2e1a" stroke-width="3"/>
<path d="M207,497 l20,17 v-8 z" fill="#fff" opacity="0.12"/><path d="M305,547 v-52 l24,20 l24,-20 v52 z" fill="#b06344" stroke="#5f2e1a" stroke-width="3"/>
<path d="M307,497 l20,17 v-8 z" fill="#fff" opacity="0.12"/><path d="M405,547 v-52 l24,20 l24,-20 v52 z" fill="#a55f42" stroke="#5f2e1a" stroke-width="3"/>
<path d="M407,497 l20,17 v-8 z" fill="#fff" opacity="0.12"/><path d="M505,547 v-52 l24,20 l24,-20 v52 z" fill="#9c5238" stroke="#5f2e1a" stroke-width="3"/>
<path d="M507,497 l20,17 v-8 z" fill="#fff" opacity="0.12"/><path d="M605,547 v-52 l24,20 l24,-20 v52 z" fill="#a85a3e" stroke="#5f2e1a" stroke-width="3"/>
<path d="M607,497 l20,17 v-8 z" fill="#fff" opacity="0.12"/><path d="M705,547 v-52 l24,20 l24,-20 v52 z" fill="#b06344" stroke="#5f2e1a" stroke-width="3"/>
<path d="M707,497 l20,17 v-8 z" fill="#fff" opacity="0.12"/>
  <rect x="180" y="800" width="540" height="250" fill="url(#prato)"/>
  <rect x="180" y="800" width="540" height="9" fill="#0f2415"/>
</g>
<defs><radialGradient id="luceMuro" cx="0.5" cy="0.5" r="0.5">
  <stop offset="0" stop-color="#f6dfa8" stop-opacity="0.22"/>
  <stop offset="1" stop-color="#f6dfa8" stop-opacity="0"/>
</radialGradient></defs>

<path d="M252,356 h396 q10,0 10,10 v280 q0,205 -250,318 q-250,-113 -250,-318 v-280 q0,-10 10,-10 z" fill="none" stroke="#d9a24e" stroke-width="3.5" opacity="0.65"/>


<g>
 <rect x="308" y="565" width="284" height="150" rx="12" fill="url(#oroV)" stroke="#6d4a16" stroke-width="6"/>
 <rect x="322" y="579" width="256" height="122" rx="7" fill="none" stroke="#8a5c1c" stroke-width="4"/>
 <path d="M312,580 L588,565 L588,595 L312,614 z" fill="#fff" opacity="0.16"/>
 <text x="450" y="662" font-family="Palatino, 'Palatino Linotype', Georgia, serif" font-size="62"
       font-weight="700" fill="#fff8e2" text-anchor="middle" letter-spacing="10" opacity="0.55" dy="2">LMV</text>
 <text x="450" y="660" font-family="Palatino, 'Palatino Linotype', Georgia, serif" font-size="62"
       font-weight="700" fill="#6d4413" text-anchor="middle" letter-spacing="10">LMV</text>
</g>
<path d="M160,1002 Q450,966 740,1002 L754,1002 L752,1014 L757,1027 L753,1039 L751,1051 L757,1063 L767,1076 L764,1088 Q450,1122 152,1088 L136,1088 L146,1076 L140,1063 L145,1051 L147,1039 L148,1027 L146,1014 L133,1002 z" fill="url(#carta)" stroke="#8a6a3a" stroke-width="3.5"/><path d="M170,1010 Q450,976 730,1010" fill="none" stroke="#b99a63" stroke-width="2" opacity="0.6"/><text x="450" y="1062" font-family="Palatino, 'Palatino Linotype', Georgia, serif" font-size="42" font-weight="700" fill="#4a3018" text-anchor="middle" letter-spacing="4">LE MURA DI VERONA</text>

<text x="450" y="1160" font-family="Palatino, 'Palatino Linotype', Georgia, serif" font-size="30"
      font-style="italic" fill="#5f4a2e" text-anchor="middle" letter-spacing="3">Qui mura solo Verona &#183; MMXXVII</text>
</svg>