<svg xmlns="http://www.w3.org/2000/svg" viewBox="0 0 1000 1150" width="1000" height="1150">
<defs>
 <linearGradient id="oroBordo" x1="0" y1="0" x2="0.8" y2="1">
  <stop offset="0" stop-color="#f2d391"/><stop offset="0.35" stop-color="#d9a24e"/>
  <stop offset="0.65" stop-color="#a5762a"/><stop offset="1" stop-color="#e0b263"/>
 </linearGradient>
 <linearGradient id="oroV" x1="0" y1="0" x2="0" y2="1">
  <stop offset="0" stop-color="#f6e0aa"/><stop offset="0.4" stop-color="#dfa94f"/>
  <stop offset="0.75" stop-color="#b1802f"/><stop offset="1" stop-color="#d9a24e"/>
 </linearGradient>
 <linearGradient id="oroH" x1="0" y1="0" x2="1" y2="0">
  <stop offset="0" stop-color="#b1802f"/><stop offset="0.35" stop-color="#f0cd8a"/>
  <stop offset="0.65" stop-color="#c08c36"/><stop offset="1" stop-color="#a5762a"/>
 </linearGradient>
 <radialGradient id="campo" cx="0.5" cy="0.3" r="1">
  <stop offset="0" stop-color="#2b2622"/><stop offset="0.7" stop-color="#1d1916"/>
  <stop offset="1" stop-color="#141110"/>
 </radialGradient>
 <radialGradient id="carta" cx="0.5" cy="0.4" r="0.8">
  <stop offset="0" stop-color="#f4e9cd"/><stop offset="0.75" stop-color="#e6d2a8"/>
  <stop offset="1" stop-color="#d0b586"/>
 </radialGradient>
 <linearGradient id="prato" x1="0" y1="0" x2="0" y2="1">
  <stop offset="0" stop-color="#1f5230"/><stop offset="1" stop-color="#123322"/>
 </linearGradient>
 <clipPath id="clipScudo"><path d="M269,235 h462 q34,0 34,34 v300 q0,190 -265,290 q-265,-100 -265,-290 v-300 q0,-34 34,-34 z"/></clipPath>
</defs>

<g><path d="M268,1008 C168,868 132,688 182,512" fill="none" stroke="#6b573a" stroke-width="12" stroke-linecap="round"/><path d="M268,1008 C168,868 132,688 182,512" fill="none" stroke="#83704b" stroke-width="5" stroke-linecap="round" opacity="0.7"/><g transform="rotate(-104 181 515)"><path d="M181,515 Q210,497 239,515 Q210,533 181,515 z" fill="#436133"/><path d="M188,515 L231,515" stroke="#96b077" stroke-width="2.2" opacity="0.8"/></g><g transform="rotate(-71 181 515)"><path d="M181,515 Q210,497 239,515 Q210,533 181,515 z" fill="#436133"/><path d="M188,515 L231,515" stroke="#96b077" stroke-width="2.2" opacity="0.8"/></g><g transform="rotate(-40 181 515)"><path d="M181,515 Q210,497 239,515 Q210,533 181,515 z" fill="#436133"/><path d="M188,515 L231,515" stroke="#96b077" stroke-width="2.2" opacity="0.8"/></g><path d="M248,978 Q212,979 162,980" fill="none" stroke="#6b573a" stroke-width="5.5" stroke-linecap="round"/><g transform="rotate(-211 224 979)"><path d="M224,979 Q254,959 284,979 Q254,998 224,979 z" fill="#57783f"/><path d="M231,979 L276,979" stroke="#96b077" stroke-width="2.2" opacity="0.8"/></g><g transform="rotate(-150 224 979)"><path d="M224,979 Q254,959 284,979 Q254,998 224,979 z" fill="#4c6b3a"/><path d="M231,979 L276,979" stroke="#96b077" stroke-width="2.2" opacity="0.8"/></g><g transform="rotate(-223 201 979)"><path d="M201,979 Q231,960 261,979 Q231,999 201,979 z" fill="#57783f"/><path d="M208,979 L253,979" stroke="#96b077" stroke-width="2.2" opacity="0.8"/></g><g transform="rotate(-141 201 979)"><path d="M201,979 Q231,960 261,979 Q231,999 201,979 z" fill="#57783f"/><path d="M208,979 L253,979" stroke="#96b077" stroke-width="2.2" opacity="0.8"/></g><g transform="rotate(-219 178 980)"><path d="M178,980 Q208,960 238,980 Q208,999 178,980 z" fill="#4c6b3a"/><path d="M185,980 L230,980" stroke="#96b077" stroke-width="2.2" opacity="0.8"/></g><g transform="rotate(-146 178 980)"><path d="M178,980 Q208,960 238,980 Q208,999 178,980 z" fill="#516f3c"/><path d="M185,980 L230,980" stroke="#96b077" stroke-width="2.2" opacity="0.8"/></g><g transform="rotate(-183 162 980)"><path d="M162,980 Q195,959 227,980 Q195,1001 162,980 z" fill="#57783f"/><path d="M170,980 L218,980" stroke="#96b077" stroke-width="2.2" opacity="0.8"/></g><g transform="rotate(-65 235 956)"><path d="M235,956 Q260,939 286,956 Q260,973 235,956 z" fill="#516f3c"/><path d="M241,956 L279,956" stroke="#96b077" stroke-width="2.2" opacity="0.8"/></g><path d="M223,934 Q245,896 253,857" fill="none" stroke="#6b573a" stroke-width="5.5" stroke-linecap="round"/><g transform="rotate(-108 231 912)"><path d="M231,912 Q260,894 290,912 Q260,931 231,912 z" fill="#4c6b3a"/><path d="M238,912 L281,912" stroke="#96b077" stroke-width="2.2" opacity="0.8"/></g><g transform="rotate(-30 231 912)"><path d="M231,912 Q260,894 290,912 Q260,931 231,912 z" fill="#516f3c"/><path d="M238,912 L281,912" stroke="#96b077" stroke-width="2.2" opacity="0.8"/></g><g transform="rotate(-105 239 892)"><path d="M239,892 Q269,873 298,892 Q269,910 239,892 z" fill="#516f3c"/><path d="M246,892 L290,892" stroke="#96b077" stroke-width="2.2" opacity="0.8"/></g><g transform="rotate(-29 239 892)"><path d="M239,892 Q269,873 298,892 Q269,910 239,892 z" fill="#436133"/><path d="M246,892 L290,892" stroke="#96b077" stroke-width="2.2" opacity="0.8"/></g><g transform="rotate(-110 247 871)"><path d="M247,871 Q277,852 306,871 Q277,890 247,871 z" fill="#4c6b3a"/><path d="M254,871 L298,871" stroke="#96b077" stroke-width="2.2" opacity="0.8"/></g><g transform="rotate(-34 247 871)"><path d="M247,871 Q277,852 306,871 Q277,890 247,871 z" fill="#516f3c"/><path d="M254,871 L298,871" stroke="#96b077" stroke-width="2.2" opacity="0.8"/></g><g transform="rotate(-75 253 857)"><path d="M253,857 Q284,837 315,857 Q284,877 253,857 z" fill="#4c6b3a"/><path d="M260,857 L306,857" stroke="#96b077" stroke-width="2.2" opacity="0.8"/></g><g transform="rotate(-165 212 911)"><path d="M212,911 Q237,894 261,911 Q237,927 212,911 z" fill="#4c6b3a"/><path d="M218,911 L254,911" stroke="#96b077" stroke-width="2.2" opacity="0.8"/></g><path d="M202,888 Q170,879 125,870" fill="none" stroke="#6b573a" stroke-width="5.5" stroke-linecap="round"/><g transform="rotate(-201 180 883)"><path d="M180,883 Q208,865 236,883 Q208,901 180,883 z" fill="#57783f"/><path d="M187,883 L229,883" stroke="#96b077" stroke-width="2.2" opacity="0.8"/></g><g transform="rotate(-130 180 883)"><path d="M180,883 Q208,865 236,883 Q208,901 180,883 z" fill="#57783f"/><path d="M187,883 L229,883" stroke="#96b077" stroke-width="2.2" opacity="0.8"/></g><g transform="rotate(-202 160 878)"><path d="M160,878 Q188,860 216,878 Q188,896 160,878 z" fill="#4c6b3a"/><path d="M166,878 L208,878" stroke="#96b077" stroke-width="2.2" opacity="0.8"/></g><g transform="rotate(-131 160 878)"><path d="M160,878 Q188,860 216,878 Q188,896 160,878 z" fill="#57783f"/><path d="M166,878 L208,878" stroke="#96b077" stroke-width="2.2" opacity="0.8"/></g><g transform="rotate(-208 139 873)"><path d="M139,873 Q167,855 195,873 Q167,891 139,873 z" fill="#516f3c"/><path d="M145,873 L187,873" stroke="#96b077" stroke-width="2.2" opacity="0.8"/></g><g transform="rotate(-128 139 873)"><path d="M139,873 Q167,855 195,873 Q167,891 139,873 z" fill="#516f3c"/><path d="M145,873 L187,873" stroke="#96b077" stroke-width="2.2" opacity="0.8"/></g><g transform="rotate(-171 125 870)"><path d="M125,870 Q155,851 185,870 Q155,889 125,870 z" fill="#436133"/><path d="M132,870 L177,870" stroke="#96b077" stroke-width="2.2" opacity="0.8"/></g><g transform="rotate(-56 193 864)"><path d="M193,864 Q217,848 240,864 Q217,879 193,864 z" fill="#516f3c"/><path d="M198,864 L234,864" stroke="#96b077" stroke-width="2.2" opacity="0.8"/></g><path d="M185,840 Q212,808 225,776" fill="none" stroke="#6b573a" stroke-width="5.5" stroke-linecap="round"/><g transform="rotate(-90 196 822)"><path d="M196,822 Q223,805 250,822 Q223,839 196,822 z" fill="#4c6b3a"/><path d="M203,822 L242,822" stroke="#96b077" stroke-width="2.2" opacity="0.8"/></g><g transform="rotate(-21 196 822)"><path d="M196,822 Q223,805 250,822 Q223,839 196,822 z" fill="#436133"/><path d="M203,822 L242,822" stroke="#96b077" stroke-width="2.2" opacity="0.8"/></g><g transform="rotate(-91 207 805)"><path d="M207,805 Q234,787 261,805 Q234,822 207,805 z" fill="#516f3c"/><path d="M213,805 L253,805" stroke="#96b077" stroke-width="2.2" opacity="0.8"/></g><g transform="rotate(-22 207 805)"><path d="M207,805 Q234,787 261,805 Q234,822 207,805 z" fill="#57783f"/><path d="M213,805 L253,805" stroke="#96b077" stroke-width="2.2" opacity="0.8"/></g><g transform="rotate(-97 218 787)"><path d="M218,787 Q245,770 272,787 Q245,805 218,787 z" fill="#436133"/><path d="M224,787 L264,787" stroke="#96b077" stroke-width="2.2" opacity="0.8"/></g><g transform="rotate(-21 218 787)"><path d="M218,787 Q245,770 272,787 Q245,805 218,787 z" fill="#4c6b3a"/><path d="M224,787 L264,787" stroke="#96b077" stroke-width="2.2" opacity="0.8"/></g><g transform="rotate(-53 225 776)"><path d="M225,776 Q254,757 283,776 Q254,794 225,776 z" fill="#57783f"/><path d="M232,776 L275,776" stroke="#96b077" stroke-width="2.2" opacity="0.8"/></g><g transform="rotate(-155 178 815)"><path d="M178,815 Q201,800 224,815 Q201,830 178,815 z" fill="#4c6b3a"/><path d="M183,815 L217,815" stroke="#96b077" stroke-width="2.2" opacity="0.8"/></g><path d="M172,791 Q145,778 104,766" fill="none" stroke="#6b573a" stroke-width="5.5" stroke-linecap="round"/><g transform="rotate(-200 153 784)"><path d="M153,784 Q179,767 205,784 Q179,800 153,784 z" fill="#4c6b3a"/><path d="M159,784 L198,784" stroke="#96b077" stroke-width="2.2" opacity="0.8"/></g><g transform="rotate(-125 153 784)"><path d="M153,784 Q179,767 205,784 Q179,800 153,784 z" fill="#516f3c"/><path d="M159,784 L198,784" stroke="#96b077" stroke-width="2.2" opacity="0.8"/></g><g transform="rotate(-199 135 777)"><path d="M135,777 Q161,761 187,777 Q161,794 135,777 z" fill="#516f3c"/><path d="M141,777 L179,777" stroke="#96b077" stroke-width="2.2" opacity="0.8"/></g><g transform="rotate(-129 135 777)"><path d="M135,777 Q161,761 187,777 Q161,794 135,777 z" fill="#516f3c"/><path d="M141,777 L179,777" stroke="#96b077" stroke-width="2.2" opacity="0.8"/></g><g transform="rotate(-202 116 771)"><path d="M116,771 Q142,754 168,771 Q142,787 116,771 z" fill="#4c6b3a"/><path d="M123,771 L161,771" stroke="#96b077" stroke-width="2.2" opacity="0.8"/></g><g transform="rotate(-128 116 771)"><path d="M116,771 Q142,754 168,771 Q142,787 116,771 z" fill="#57783f"/><path d="M123,771 L161,771" stroke="#96b077" stroke-width="2.2" opacity="0.8"/></g><g transform="rotate(-163 104 766)"><path d="M104,766 Q132,748 160,766 Q132,784 104,766 z" fill="#4c6b3a"/><path d="M111,766 L152,766" stroke="#96b077" stroke-width="2.2" opacity="0.8"/></g><g transform="rotate(-47 167 765)"><path d="M167,765 Q189,751 211,765 Q189,780 167,765 z" fill="#516f3c"/><path d="M173,765 L205,765" stroke="#96b077" stroke-width="2.2" opacity="0.8"/></g><path d="M164,740 Q195,716 213,692" fill="none" stroke="#6b573a" stroke-width="5.5" stroke-linecap="round"/><g transform="rotate(-85 178 727)"><path d="M178,727 Q202,711 227,727 Q202,743 178,727 z" fill="#516f3c"/><path d="M183,727 L220,727" stroke="#96b077" stroke-width="2.2" opacity="0.8"/></g><g transform="rotate(-3 178 727)"><path d="M178,727 Q202,711 227,727 Q202,743 178,727 z" fill="#57783f"/><path d="M183,727 L220,727" stroke="#96b077" stroke-width="2.2" opacity="0.8"/></g><g transform="rotate(-82 191 714)"><path d="M191,714 Q216,698 240,714 Q216,730 191,714 z" fill="#516f3c"/><path d="M197,714 L233,714" stroke="#96b077" stroke-width="2.2" opacity="0.8"/></g><g transform="rotate(-10 191 714)"><path d="M191,714 Q216,698 240,714 Q216,730 191,714 z" fill="#4c6b3a"/><path d="M197,714 L233,714" stroke="#96b077" stroke-width="2.2" opacity="0.8"/></g><g transform="rotate(-79 204 701)"><path d="M204,701 Q229,685 254,701 Q229,717 204,701 z" fill="#436133"/><path d="M210,701 L247,701" stroke="#96b077" stroke-width="2.2" opacity="0.8"/></g><g transform="rotate(-5 204 701)"><path d="M204,701 Q229,685 254,701 Q229,717 204,701 z" fill="#4c6b3a"/><path d="M210,701 L247,701" stroke="#96b077" stroke-width="2.2" opacity="0.8"/></g><g transform="rotate(-51 213 692)"><path d="M213,692 Q240,675 266,692 Q240,709 213,692 z" fill="#4c6b3a"/><path d="M219,692 L259,692" stroke="#96b077" stroke-width="2.2" opacity="0.8"/></g><g transform="rotate(-138 161 715)"><path d="M161,715 Q182,701 203,715 Q182,728 161,715 z" fill="#436133"/><path d="M166,715 L197,715" stroke="#96b077" stroke-width="2.2" opacity="0.8"/></g><path d="M160,689 Q138,674 102,659" fill="none" stroke="#6b573a" stroke-width="5.5" stroke-linecap="round"/><g transform="rotate(-182 144 681)"><path d="M144,681 Q167,665 191,681 Q167,696 144,681 z" fill="#516f3c"/><path d="M149,681 L184,681" stroke="#96b077" stroke-width="2.2" opacity="0.8"/></g><g transform="rotate(-113 144 681)"><path d="M144,681 Q167,665 191,681 Q167,696 144,681 z" fill="#4c6b3a"/><path d="M149,681 L184,681" stroke="#96b077" stroke-width="2.2" opacity="0.8"/></g><g transform="rotate(-193 128 672)"><path d="M128,672 Q152,657 175,672 Q152,688 128,672 z" fill="#57783f"/><path d="M134,672 L169,672" stroke="#96b077" stroke-width="2.2" opacity="0.8"/></g><g transform="rotate(-119 128 672)"><path d="M128,672 Q152,657 175,672 Q152,688 128,672 z" fill="#4c6b3a"/><path d="M134,672 L169,672" stroke="#96b077" stroke-width="2.2" opacity="0.8"/></g><g transform="rotate(-185 112 664)"><path d="M112,664 Q136,649 160,664 Q136,679 112,664 z" fill="#436133"/><path d="M118,664 L153,664" stroke="#96b077" stroke-width="2.2" opacity="0.8"/></g><g transform="rotate(-119 112 664)"><path d="M112,664 Q136,649 160,664 Q136,679 112,664 z" fill="#436133"/><path d="M118,664 L153,664" stroke="#96b077" stroke-width="2.2" opacity="0.8"/></g><g transform="rotate(-160 102 659)"><path d="M102,659 Q128,642 153,659 Q128,675 102,659 z" fill="#516f3c"/><path d="M108,659 L146,659" stroke="#96b077" stroke-width="2.2" opacity="0.8"/></g><g transform="rotate(-46 160 663)"><path d="M160,663 Q180,650 200,663 Q180,676 160,663 z" fill="#4c6b3a"/><path d="M165,663 L194,663" stroke="#96b077" stroke-width="2.2" opacity="0.8"/></g><path d="M161,637 Q196,624 217,611" fill="none" stroke="#6b573a" stroke-width="5.5" stroke-linecap="round"/><g transform="rotate(-56 176 630)"><path d="M176,630 Q199,615 222,630 Q199,644 176,630 z" fill="#57783f"/><path d="M182,630 L215,630" stroke="#96b077" stroke-width="2.2" opacity="0.8"/></g><g transform="rotate(6 176 630)"><path d="M176,630 Q199,615 222,630 Q199,644 176,630 z" fill="#516f3c"/><path d="M182,630 L215,630" stroke="#96b077" stroke-width="2.2" opacity="0.8"/></g><g transform="rotate(-62 191 623)"><path d="M191,623 Q214,608 237,623 Q214,637 191,623 z" fill="#4c6b3a"/><path d="M197,623 L230,623" stroke="#96b077" stroke-width="2.2" opacity="0.8"/></g><g transform="rotate(6 191 623)"><path d="M191,623 Q214,608 237,623 Q214,637 191,623 z" fill="#57783f"/><path d="M197,623 L230,623" stroke="#96b077" stroke-width="2.2" opacity="0.8"/></g><g transform="rotate(-61 207 615)"><path d="M207,615 Q229,601 252,615 Q229,630 207,615 z" fill="#516f3c"/><path d="M212,615 L245,615" stroke="#96b077" stroke-width="2.2" opacity="0.8"/></g><g transform="rotate(15 207 615)"><path d="M207,615 Q229,601 252,615 Q229,630 207,615 z" fill="#516f3c"/><path d="M212,615 L245,615" stroke="#96b077" stroke-width="2.2" opacity="0.8"/></g><g transform="rotate(-32 217 611)"><path d="M217,611 Q241,595 266,611 Q241,626 217,611 z" fill="#516f3c"/><path d="M223,611 L259,611" stroke="#96b077" stroke-width="2.2" opacity="0.8"/></g><g transform="rotate(-130 163 611)"><path d="M163,611 Q182,598 201,611 Q182,624 163,611 z" fill="#516f3c"/><path d="M167,611 L196,611" stroke="#96b077" stroke-width="2.2" opacity="0.8"/></g><path d="M166,585 Q152,565 124,544" fill="none" stroke="#6b573a" stroke-width="5.5" stroke-linecap="round"/><g transform="rotate(-178 154 574)"><path d="M154,574 Q176,560 197,574 Q176,587 154,574 z" fill="#516f3c"/><path d="M159,574 L191,574" stroke="#96b077" stroke-width="2.2" opacity="0.8"/></g><g transform="rotate(-99 154 574)"><path d="M154,574 Q176,560 197,574 Q176,587 154,574 z" fill="#436133"/><path d="M159,574 L191,574" stroke="#96b077" stroke-width="2.2" opacity="0.8"/></g><g transform="rotate(-173 143 563)"><path d="M143,563 Q164,549 186,563 Q164,576 143,563 z" fill="#4c6b3a"/><path d="M148,563 L180,563" stroke="#96b077" stroke-width="2.2" opacity="0.8"/></g><g transform="rotate(-104 143 563)"><path d="M143,563 Q164,549 186,563 Q164,576 143,563 z" fill="#516f3c"/><path d="M148,563 L180,563" stroke="#96b077" stroke-width="2.2" opacity="0.8"/></g><g transform="rotate(-178 131 552)"><path d="M131,552 Q153,538 174,552 Q153,565 131,552 z" fill="#57783f"/><path d="M137,552 L168,552" stroke="#96b077" stroke-width="2.2" opacity="0.8"/></g><g transform="rotate(-97 131 552)"><path d="M131,552 Q153,538 174,552 Q153,565 131,552 z" fill="#4c6b3a"/><path d="M137,552 L168,552" stroke="#96b077" stroke-width="2.2" opacity="0.8"/></g><g transform="rotate(-134 124 544)"><path d="M124,544 Q147,529 171,544 Q147,559 124,544 z" fill="#516f3c"/><path d="M129,544 L164,544" stroke="#96b077" stroke-width="2.2" opacity="0.8"/></g><g transform="rotate(-30 171 559)"><path d="M171,559 Q189,546 207,559 Q189,571 171,559 z" fill="#57783f"/><path d="M175,559 L202,559" stroke="#96b077" stroke-width="2.2" opacity="0.8"/></g><path d="M177,533 Q209,523 228,513" fill="none" stroke="#6b573a" stroke-width="5.5" stroke-linecap="round"/><g transform="rotate(-60 191 527)"><path d="M191,527 Q211,514 232,527 Q211,540 191,527 z" fill="#516f3c"/><path d="M196,527 L226,527" stroke="#96b077" stroke-width="2.2" opacity="0.8"/></g><g transform="rotate(18 191 527)"><path d="M191,527 Q211,514 232,527 Q211,540 191,527 z" fill="#57783f"/><path d="M196,527 L226,527" stroke="#96b077" stroke-width="2.2" opacity="0.8"/></g><g transform="rotate(-64 205 522)"><path d="M205,522 Q225,509 246,522 Q225,535 205,522 z" fill="#436133"/><path d="M210,522 L240,522" stroke="#96b077" stroke-width="2.2" opacity="0.8"/></g><g transform="rotate(21 205 522)"><path d="M205,522 Q225,509 246,522 Q225,535 205,522 z" fill="#436133"/><path d="M210,522 L240,522" stroke="#96b077" stroke-width="2.2" opacity="0.8"/></g><g transform="rotate(-51 219 516)"><path d="M219,516 Q239,503 260,516 Q239,529 219,516 z" fill="#516f3c"/><path d="M224,516 L254,516" stroke="#96b077" stroke-width="2.2" opacity="0.8"/></g><g transform="rotate(11 219 516)"><path d="M219,516 Q239,503 260,516 Q239,529 219,516 z" fill="#436133"/><path d="M224,516 L254,516" stroke="#96b077" stroke-width="2.2" opacity="0.8"/></g><g transform="rotate(-28 228 513)"><path d="M228,513 Q251,498 273,513 Q251,527 228,513 z" fill="#516f3c"/><path d="M234,513 L267,513" stroke="#96b077" stroke-width="2.2" opacity="0.8"/></g><path d="M190,885 L193,901" stroke="#6b573a" stroke-width="3"/><ellipse cx="194" cy="911" rx="10" ry="13" fill="#3a4a26"/><ellipse cx="190" cy="906" rx="3.5" ry="5" fill="#7d915c" opacity="0.9"/><path d="M172,733 L175,749" stroke="#6b573a" stroke-width="3"/><ellipse cx="176" cy="759" rx="10" ry="13" fill="#3a4a26"/><ellipse cx="172" cy="754" rx="3.5" ry="5" fill="#7d915c" opacity="0.9"/><path d="M170,633 L173,649" stroke="#6b573a" stroke-width="3"/><ellipse cx="174" cy="659" rx="10" ry="13" fill="#3a4a26"/><ellipse cx="170" cy="654" rx="3.5" ry="5" fill="#7d915c" opacity="0.9"/></g>

<path d="M868,1060 C800,960 788,790 812,650 C826,570 848,510 868,470
         C888,510 910,570 924,650 C948,790 936,960 868,1060 z" fill="#274a28"/>
<path d="M868,1050 C815,955 806,795 826,660 C838,585 855,528 868,492
         C874,560 876,780 872,900 C871,960 869,1010 868,1050 z" fill="#31582f"/>
<path d="M868,480 C866,600 864,850 866,1040" stroke="#1c3a1e" stroke-width="7" fill="none" stroke-linecap="round"/>
<rect x="330" y="168" width="340" height="46" rx="5" fill="url(#oroH)" stroke="#8a5c1c" stroke-width="4.5"/><rect x="336" y="173" width="328" height="9" rx="4" fill="#fff" opacity="0.3"/><path d="M350.0,168 v-74 l42.0,29.6 l42.0,-29.6 v74 z" fill="url(#oroV)" stroke="#8a5c1c" stroke-width="4.5"/><path d="M355.0,99 l34.0,28.12 v-19.240000000000002 z" fill="#fff" opacity="0.25"/><path d="M458.0,168 v-94 l42.0,37.6 l42.0,-37.6 v94 z" fill="url(#oroV)" stroke="#8a5c1c" stroke-width="4.5"/><path d="M463.0,79 l34.0,35.72 v-24.44 z" fill="#fff" opacity="0.25"/><path d="M566.0,168 v-74 l42.0,29.6 l42.0,-29.6 v74 z" fill="url(#oroV)" stroke="#8a5c1c" stroke-width="4.5"/><path d="M571.0,99 l34.0,28.12 v-19.240000000000002 z" fill="#fff" opacity="0.25"/>

<path d="M269,235 h462 q34,0 34,34 v300 q0,190 -265,290 q-265,-100 -265,-290 v-300 q0,-34 34,-34 z" fill="none" stroke="#141008" stroke-width="30" stroke-linejoin="round"/>
<path d="M269,235 h462 q34,0 34,34 v300 q0,190 -265,290 q-265,-100 -265,-290 v-300 q0,-34 34,-34 z" fill="url(#campo)" stroke="url(#oroBordo)" stroke-width="22" stroke-linejoin="round"/>

<g clip-path="url(#clipScudo)">
  <rect x="220" y="470" width="108" height="52" rx="9" fill="#a95f41"/><rect x="224" y="473" width="100" height="8" rx="4" fill="#fff" opacity="0.16"/><rect x="224" y="513" width="100" height="8" rx="4" fill="#5f2e1a" opacity="0.35"/><rect x="334" y="470" width="108" height="52" rx="9" fill="#b2694a"/><rect x="338" y="473" width="100" height="8" rx="4" fill="#fff" opacity="0.16"/><rect x="338" y="513" width="100" height="8" rx="4" fill="#5f2e1a" opacity="0.35"/><rect x="448" y="470" width="108" height="52" rx="9" fill="#a95f41"/><rect x="452" y="473" width="100" height="8" rx="4" fill="#fff" opacity="0.16"/><rect x="452" y="513" width="100" height="8" rx="4" fill="#5f2e1a" opacity="0.35"/><rect x="562" y="470" width="108" height="52" rx="9" fill="#b2694a"/><rect x="566" y="473" width="100" height="8" rx="4" fill="#fff" opacity="0.16"/><rect x="566" y="513" width="100" height="8" rx="4" fill="#5f2e1a" opacity="0.35"/><rect x="676" y="470" width="108" height="52" rx="9" fill="#a95f41"/><rect x="680" y="473" width="100" height="8" rx="4" fill="#fff" opacity="0.16"/><rect x="680" y="513" width="100" height="8" rx="4" fill="#5f2e1a" opacity="0.35"/><rect x="163" y="528" width="108" height="52" rx="9" fill="#a95f41"/><rect x="167" y="531" width="100" height="8" rx="4" fill="#fff" opacity="0.16"/><rect x="167" y="571" width="100" height="8" rx="4" fill="#5f2e1a" opacity="0.35"/><rect x="277" y="528" width="108" height="52" rx="9" fill="#b2694a"/><rect x="281" y="531" width="100" height="8" rx="4" fill="#fff" opacity="0.16"/><rect x="281" y="571" width="100" height="8" rx="4" fill="#5f2e1a" opacity="0.35"/><rect x="391" y="528" width="108" height="52" rx="9" fill="#a95f41"/><rect x="395" y="531" width="100" height="8" rx="4" fill="#fff" opacity="0.16"/><rect x="395" y="571" width="100" height="8" rx="4" fill="#5f2e1a" opacity="0.35"/><rect x="505" y="528" width="108" height="52" rx="9" fill="#b2694a"/><rect x="509" y="531" width="100" height="8" rx="4" fill="#fff" opacity="0.16"/><rect x="509" y="571" width="100" height="8" rx="4" fill="#5f2e1a" opacity="0.35"/><rect x="619" y="528" width="108" height="52" rx="9" fill="#a95f41"/><rect x="623" y="531" width="100" height="8" rx="4" fill="#fff" opacity="0.16"/><rect x="623" y="571" width="100" height="8" rx="4" fill="#5f2e1a" opacity="0.35"/><rect x="733" y="528" width="108" height="52" rx="9" fill="#b2694a"/><rect x="737" y="531" width="100" height="8" rx="4" fill="#fff" opacity="0.16"/><rect x="737" y="571" width="100" height="8" rx="4" fill="#5f2e1a" opacity="0.35"/><rect x="220" y="586" width="108" height="52" rx="9" fill="#a95f41"/><rect x="224" y="589" width="100" height="8" rx="4" fill="#fff" opacity="0.16"/><rect x="224" y="629" width="100" height="8" rx="4" fill="#5f2e1a" opacity="0.35"/><rect x="334" y="586" width="108" height="52" rx="9" fill="#b2694a"/><rect x="338" y="589" width="100" height="8" rx="4" fill="#fff" opacity="0.16"/><rect x="338" y="629" width="100" height="8" rx="4" fill="#5f2e1a" opacity="0.35"/><rect x="448" y="586" width="108" height="52" rx="9" fill="#a95f41"/><rect x="452" y="589" width="100" height="8" rx="4" fill="#fff" opacity="0.16"/><rect x="452" y="629" width="100" height="8" rx="4" fill="#5f2e1a" opacity="0.35"/><rect x="562" y="586" width="108" height="52" rx="9" fill="#b2694a"/><rect x="566" y="589" width="100" height="8" rx="4" fill="#fff" opacity="0.16"/><rect x="566" y="629" width="100" height="8" rx="4" fill="#5f2e1a" opacity="0.35"/><rect x="676" y="586" width="108" height="52" rx="9" fill="#a95f41"/><rect x="680" y="589" width="100" height="8" rx="4" fill="#fff" opacity="0.16"/><rect x="680" y="629" width="100" height="8" rx="4" fill="#5f2e1a" opacity="0.35"/><rect x="163" y="644" width="108" height="52" rx="9" fill="#a95f41"/><rect x="167" y="647" width="100" height="8" rx="4" fill="#fff" opacity="0.16"/><rect x="167" y="687" width="100" height="8" rx="4" fill="#5f2e1a" opacity="0.35"/><rect x="277" y="644" width="108" height="52" rx="9" fill="#b2694a"/><rect x="281" y="647" width="100" height="8" rx="4" fill="#fff" opacity="0.16"/><rect x="281" y="687" width="100" height="8" rx="4" fill="#5f2e1a" opacity="0.35"/><rect x="391" y="644" width="108" height="52" rx="9" fill="#a95f41"/><rect x="395" y="647" width="100" height="8" rx="4" fill="#fff" opacity="0.16"/><rect x="395" y="687" width="100" height="8" rx="4" fill="#5f2e1a" opacity="0.35"/><rect x="505" y="644" width="108" height="52" rx="9" fill="#b2694a"/><rect x="509" y="647" width="100" height="8" rx="4" fill="#fff" opacity="0.16"/><rect x="509" y="687" width="100" height="8" rx="4" fill="#5f2e1a" opacity="0.35"/><rect x="619" y="644" width="108" height="52" rx="9" fill="#a95f41"/><rect x="623" y="647" width="100" height="8" rx="4" fill="#fff" opacity="0.16"/><rect x="623" y="687" width="100" height="8" rx="4" fill="#5f2e1a" opacity="0.35"/><rect x="733" y="644" width="108" height="52" rx="9" fill="#b2694a"/><rect x="737" y="647" width="100" height="8" rx="4" fill="#fff" opacity="0.16"/><rect x="737" y="687" width="100" height="8" rx="4" fill="#5f2e1a" opacity="0.35"/>
  <path d="M238,472 v-56 l26,22 l26,-22 v56 z" fill="#a95f41" stroke="#6d3a24" stroke-width="3.5"/>
<path d="M241,418 l22,18 v-9 z" fill="#fff" opacity="0.16"/><path d="M336,472 v-56 l26,22 l26,-22 v56 z" fill="#b2694a" stroke="#6d3a24" stroke-width="3.5"/>
<path d="M339,418 l22,18 v-9 z" fill="#fff" opacity="0.16"/><path d="M434,472 v-56 l26,22 l26,-22 v56 z" fill="#a95f41" stroke="#6d3a24" stroke-width="3.5"/>
<path d="M437,418 l22,18 v-9 z" fill="#fff" opacity="0.16"/><path d="M532,472 v-56 l26,22 l26,-22 v56 z" fill="#b2694a" stroke="#6d3a24" stroke-width="3.5"/>
<path d="M535,418 l22,18 v-9 z" fill="#fff" opacity="0.16"/><path d="M630,472 v-56 l26,22 l26,-22 v56 z" fill="#a95f41" stroke="#6d3a24" stroke-width="3.5"/>
<path d="M633,418 l22,18 v-9 z" fill="#fff" opacity="0.16"/><path d="M728,472 v-56 l26,22 l26,-22 v56 z" fill="#b2694a" stroke="#6d3a24" stroke-width="3.5"/>
<path d="M731,418 l22,18 v-9 z" fill="#fff" opacity="0.16"/>
  <rect x="215" y="702" width="570" height="308" fill="url(#prato)"/>
  <rect x="215" y="702" width="570" height="8" fill="#0c2416"/>
</g>


<g>
 <rect x="352" y="555" width="296" height="146" rx="13" fill="url(#oroV)" stroke="#8a5c1c" stroke-width="6"/>
 <rect x="368" y="571" width="264" height="114" rx="7" fill="none" stroke="#9a6a20" stroke-width="4"/>
 <path d="M356,570 L644,556 L644,588 L356,606 z" fill="#fff" opacity="0.18"/>
 <text x="500" y="650" font-family="Palatino, 'Palatino Linotype', Georgia, serif" font-size="60"
       font-weight="700" fill="#fff6dd" text-anchor="middle" letter-spacing="9" dy="2" opacity="0.5">LMV</text>
 <text x="500" y="648" font-family="Palatino, 'Palatino Linotype', Georgia, serif" font-size="60"
       font-weight="700" fill="#7a4d12" text-anchor="middle" letter-spacing="9">LMV</text>
</g>

<g>
 <path d="M198,1008 L280,988 L280,1070 L198,1092 L226,1050 z" fill="#cbb489" stroke="#8a6a3a" stroke-width="3.5"/>
 <path d="M802,1008 L720,988 L720,1070 L802,1092 L774,1050 z" fill="#cbb489" stroke="#8a6a3a" stroke-width="3.5"/>
 <path d="M280,988 Q500,952 720,988 L720,1070 Q500,1036 280,1070 z" fill="url(#carta)" stroke="#8a6a3a" stroke-width="4"/>
 <text x="500" y="1044" font-family="Palatino, 'Palatino Linotype', Georgia, serif" font-size="44"
       font-weight="700" fill="#3a2a14" text-anchor="middle" letter-spacing="3">LE MURA DI VERONA</text>
</g>

<text x="500" y="1122" font-family="Palatino, 'Palatino Linotype', Georgia, serif" font-size="31"
      font-style="italic" fill="#4a3a24" text-anchor="middle" letter-spacing="3">Qui mura solo Verona &#183; MMXXVII</text>
</svg>